<?xml version="1.0" encoding="UTF-8"?>
<svg width="88px" height="28px" viewBox="0 0 88 28" version="1.1" xmlns="http://www.w3.org/2000/svg" xmlns:xlink="http://www.w3.org/1999/xlink">
    <title>Adobe</title>
    <defs>
        <polygon id="path-1" points="0 0 20.3381319 0 20.3381319 15 0 15"></polygon>
    </defs>
    <g id="Page-2" stroke="none" stroke-width="1" fill="none" fill-rule="evenodd">
        <g id="CV" transform="translate(-11.000000, -1313.000000)">
            <g id="Group-6" transform="translate(0.000000, 794.000000)">
                <g id="Group-3" transform="translate(10.000000, 152.000000)">
                    <g id="Group-12" transform="translate(-0.000000, 0.000000)">
                        <g id="Group-11" transform="translate(0.000000, 212.000000)">
                            <g id="Adobe" transform="translate(1.000000, 155.000000)">
                                <rect id="Rectangle-Copy-2" stroke="#626A6F" fill-rule="nonzero" x="0.5" y="0.5" width="27" height="27" rx="4"></rect>
                                <g id="Creative_Cloud" transform="translate(4.000000, 6.000000)">
                                    <mask id="mask-2" fill="white">
                                        <use xlink:href="#path-1"></use>
                                    </mask>
                                    <g id="a"></g>
                                    <path d="M20.3381319,7.16521594 L20.3381319,7.83478406 C20.331771,7.87110814 20.3237362,7.90676264 20.3195514,7.94291932 C20.2849012,8.23418145 20.2624707,8.5272849 20.2145966,8.81637094 C20.0582524,9.75594242 19.7202879,10.6292266 19.2181118,11.4367258 C18.4554737,12.6627051 17.4245062,13.5975896 16.1288919,14.2360228 C15.3811186,14.606252 14.5748726,14.8441728 13.7458989,14.9392367 C13.5617677,14.9604955 13.3778038,14.9795782 13.1936726,14.9998326 L6.04871108,14.9998326 C6.01272179,14.9931369 5.9768999,14.9824238 5.94057583,14.9802477 C5.22012052,14.9348845 4.52695012,14.7706729 3.86625377,14.4815869 C2.42785403,13.8521928 1.35537328,12.8321058 0.653331101,11.4280214 C0.343110687,10.8086973 0.142349929,10.140382 0.0599263475,9.45262805 C0.0396719116,9.28540341 0.0199196518,9.11834617 0,8.95128892 L0,8.30164044 C0.00686307332,8.26565116 0.0174087713,8.22966187 0.0195848678,8.19350519 C0.0569132909,7.5693003 0.184968196,6.96317375 0.410445263,6.38064948 C1.01724138,4.81319049 2.07499163,3.65065283 3.57817208,2.89822564 C4.35805156,2.50770003 5.18932039,2.3024774 6.0587546,2.25694677 C6.48443254,2.23485102 6.90977569,2.25862069 7.33294275,2.31536659 C7.37127553,2.32055574 7.4265149,2.30348175 7.45313023,2.27619685 C8.06160027,1.65467024 8.75443589,1.14981587 9.5356545,0.767157683 C10.2934382,0.396049548 11.0908939,0.156846334 11.9303649,0.0610980917 C12.1278875,0.0385001674 12.3259123,0.0199196518 12.5237697,-0.000502176096 L13.1329093,-0.000502176096 C13.1727486,0.00569132909 13.2127553,0.0127217944 13.2525946,0.0174087713 C13.5544024,0.0525610981 13.8578842,0.0746568463 14.1568463,0.124707064 C15.0895547,0.281218614 15.9578172,0.616002678 16.761299,1.11332441 C17.9933043,1.8759625 18.9322062,2.90826917 19.5736525,4.2079009 C19.9446211,4.95602419 20.1827905,5.76291156 20.277536,6.59256779 C20.299297,6.7835621 20.3178775,6.97455641 20.3381319,7.16521594 M8.9663542,2.83260797 C8.97857382,2.8486776 8.98158688,2.85621024 8.98677603,2.85872112 C9.40508469,3.06490955 9.80489384,3.30667675 10.1817877,3.58135253 C10.2055574,3.59859391 10.2644794,3.59139605 10.2932708,3.57331771 C11.3290927,2.91697355 12.4519585,2.69049213 13.6581855,2.90441915 C14.8401406,3.11399397 15.8019752,3.70455306 16.5368262,4.64780716 C17.368932,5.71526615 17.6861399,6.9223301 17.4564781,8.26531637 C17.3024774,9.16538333 16.941915,9.97288249 16.3290927,10.6493137 C15.210914,11.8824908 13.8106796,12.3925343 12.1623703,12.1765986 C11.1476398,12.0436893 10.2716773,11.6059592 9.54670238,10.8732842 C8.61617007,9.93337797 7.67961165,8.99966522 6.74640107,8.06226984 C6.62202879,7.93739538 6.48359558,7.83696016 6.30448611,7.8150318 C5.9916304,7.77669903 5.70773351,7.9328758 5.57264814,8.21392702 C5.45212588,8.46484767 5.46769334,8.74774021 5.72915969,9.00485437 C6.76950117,10.0261132 7.80063609,11.0567459 8.83980583,12.079009 C9.0176627,12.2548596 9.2084065,12.4171792 9.41044526,12.5646133 C10.1695681,13.1158353 11.0254436,13.4206562 11.9522933,13.5433545 C12.679779,13.6394376 13.4015735,13.6188483 14.117844,13.4578172 C15.4840978,13.1509876 16.6158353,12.4536324 17.5071979,11.3776364 C18.2432206,10.4884499 18.688316,9.46668899 18.8434884,8.31955139 C18.9334101,7.665402 18.9146325,7.00089004 18.7879143,6.3528624 C18.5811851,5.29327084 18.1329093,4.34516237 17.4146301,3.53816538 C16.0441915,1.99933043 14.3200536,1.31235353 12.2683294,1.46568463 C11.479076,1.52460663 10.7325075,1.75644459 10.0299632,2.12420489 C9.65084981,2.32117729 9.29422666,2.55870156 8.9663542,2.83260797 M8.4643455,13.575159 C8.43610958,13.5490008 8.40798746,13.52272 8.37997991,13.4963174 C7.95463676,13.0947439 7.52695012,12.6956813 7.10662872,12.2889186 C7.0252762,12.2102444 6.95045196,12.1719116 6.83528624,12.1745899 C6.4096083,12.1849682 5.98359558,12.1868095 5.56411115,12.0920656 C3.47840643,11.6203549 2.26732508,9.35269501 3.03598929,7.35738199 C3.64228323,5.78406428 5.32072313,4.82591229 6.97589555,5.12135922 C7.71777703,5.25376632 8.36893204,5.56779377 8.9034148,6.11901573 C9.55523937,6.7919317 10.2264814,7.44559759 10.8853365,8.11165049 C11.0353197,8.26330767 11.2075661,8.33244058 11.4152996,8.30281219 C11.6837965,8.26447941 11.8975561,8.1365919 11.9946435,7.87328423 C12.0897221,7.61416137 12.0436893,7.36876465 11.8475059,7.1700703 C11.1560094,6.46953465 10.4809173,5.75142283 9.76146635,5.08068296 C8.36608637,3.77920991 6.7206227,3.39219953 4.90073652,3.94559759 C2.45296284,4.68932039 1.02042183,7.21694007 1.57967861,9.71108135 C2.08938735,11.9835956 4.07683294,13.5785069 6.40241045,13.5805156 C7.05172414,13.5811851 7.70120522,13.5809021 8.35051892,13.5805156 C8.38265819,13.5805156 8.41479746,13.5776699 8.4643455,13.575159" id="Shape" fill="#626A6F" fill-rule="nonzero" mask="url(#mask-2)"></path>
                                </g>
                                <g id="Group" transform="translate(32.000000, 2.470000)">
                                    <path d="M1.542,22.03 L2.844,18.148 L2.88,18.148 L4.182,22.03 L4.548,22.03 L5.718,17.83 L5.514,17.83 L4.374,21.874 L4.338,21.874 L2.97,17.83 L2.76,17.83 L1.386,21.874 L1.35,21.874 L0.21,17.83 L2.72848411e-12,17.83 L1.176,22.03 L1.542,22.03 Z M7.644,22.06 C7.988,22.06 8.268,21.969 8.484,21.787 C8.7,21.605 8.852,21.378 8.94,21.106 L8.94,21.106 L8.73,21.106 C8.638,21.338 8.499,21.521 8.313,21.655 C8.127,21.789 7.904,21.856 7.644,21.856 C7.404,21.856 7.192,21.794 7.008,21.67 C6.824,21.546 6.681,21.382 6.579,21.178 C6.477,20.974 6.426,20.758 6.426,20.53 L6.426,20.53 L6.426,20.488 L8.994,20.488 L8.994,20.428 C8.994,19.896 8.871,19.488 8.625,19.204 C8.379,18.92 8.052,18.778 7.644,18.778 C7.332,18.778 7.068,18.856 6.852,19.012 C6.636,19.168 6.474,19.371 6.366,19.621 C6.258,19.871 6.204,20.136 6.204,20.416 C6.204,20.692 6.257,20.956 6.363,21.208 C6.469,21.46 6.631,21.665 6.849,21.823 C7.067,21.981 7.332,22.06 7.644,22.06 Z M8.772,20.296 L6.432,20.296 C6.452,19.912 6.569,19.598 6.783,19.354 C6.997,19.11 7.284,18.988 7.644,18.988 C7.968,18.988 8.231,19.089 8.433,19.291 C8.635,19.493 8.748,19.828 8.772,20.296 L8.772,20.296 Z M10.536,22.06 C10.632,22.06 10.724,22.05 10.812,22.03 L10.812,22.03 L10.812,21.862 C10.708,21.878 10.62,21.886 10.548,21.886 C10.416,21.886 10.32,21.863 10.26,21.817 C10.2,21.771 10.163,21.708 10.149,21.628 C10.135,21.548 10.128,21.428 10.128,21.268 L10.128,21.268 L10.128,17.53 L9.924,17.53 L9.918,21.268 C9.918,21.452 9.931,21.599 9.957,21.709 C9.983,21.819 10.041,21.905 10.131,21.967 C10.221,22.029 10.356,22.06 10.536,22.06 Z M12.252,22.06 C12.348,22.06 12.44,22.05 12.528,22.03 L12.528,22.03 L12.528,21.862 C12.424,21.878 12.336,21.886 12.264,21.886 C12.132,21.886 12.036,21.863 11.976,21.817 C11.916,21.771 11.879,21.708 11.865,21.628 C11.851,21.548 11.844,21.428 11.844,21.268 L11.844,21.268 L11.844,17.53 L11.64,17.53 L11.634,21.268 C11.634,21.452 11.647,21.599 11.673,21.709 C11.699,21.819 11.757,21.905 11.847,21.967 C11.937,22.029 12.072,22.06 12.252,22.06 Z M15.924,22.06 C16.212,22.06 16.455,21.988 16.653,21.844 C16.851,21.7 17.008,21.512 17.124,21.28 L17.124,21.28 L17.166,21.28 L17.166,22.03 L17.37,22.03 L17.37,18.88 L17.166,18.88 L17.166,19.552 L17.124,19.552 C16.868,19.036 16.476,18.778 15.948,18.778 C15.652,18.778 15.396,18.852 15.18,19 C14.964,19.148 14.801,19.347 14.691,19.597 C14.581,19.847 14.526,20.122 14.526,20.422 C14.526,20.722 14.581,20.996 14.691,21.244 C14.801,21.492 14.961,21.69 15.171,21.838 C15.381,21.986 15.632,22.06 15.924,22.06 Z M15.942,21.844 C15.554,21.844 15.257,21.71 15.051,21.442 C14.845,21.174 14.742,20.832 14.742,20.416 C14.742,20.004 14.845,19.664 15.051,19.396 C15.257,19.128 15.554,18.994 15.942,18.994 C16.322,18.994 16.617,19.128 16.827,19.396 C17.037,19.664 17.142,20.006 17.142,20.422 C17.142,20.69 17.096,20.932 17.004,21.148 C16.912,21.364 16.776,21.534 16.596,21.658 C16.416,21.782 16.198,21.844 15.942,21.844 Z M21.108,23.224 L21.108,18.88 L20.904,18.88 L20.904,19.552 L20.862,19.552 C20.606,19.036 20.214,18.778 19.686,18.778 C19.39,18.778 19.134,18.852 18.918,19 C18.702,19.148 18.539,19.347 18.429,19.597 C18.319,19.847 18.264,20.122 18.264,20.422 C18.264,20.722 18.319,20.996 18.429,21.244 C18.539,21.492 18.699,21.69 18.909,21.838 C19.119,21.986 19.37,22.06 19.662,22.06 C19.95,22.06 20.193,21.988 20.391,21.844 C20.589,21.7 20.746,21.512 20.862,21.28 L20.862,21.28 L20.904,21.28 L20.904,23.224 L21.108,23.224 Z M19.68,21.844 C19.292,21.844 18.995,21.71 18.789,21.442 C18.583,21.174 18.48,20.832 18.48,20.416 C18.48,20.004 18.583,19.664 18.789,19.396 C18.995,19.128 19.292,18.994 19.68,18.994 C20.06,18.994 20.355,19.128 20.565,19.396 C20.775,19.664 20.88,20.006 20.88,20.422 C20.88,20.69 20.834,20.932 20.742,21.148 C20.65,21.364 20.514,21.534 20.334,21.658 C20.154,21.782 19.936,21.844 19.68,21.844 Z M23.448,22.084 C23.732,22.084 23.971,22.011 24.165,21.865 C24.359,21.719 24.502,21.542 24.594,21.334 L24.594,21.334 L24.63,21.334 L24.63,22.03 L24.834,22.03 L24.834,18.88 L24.63,18.88 L24.63,20.668 C24.63,20.904 24.582,21.111 24.486,21.289 C24.39,21.467 24.256,21.605 24.084,21.703 C23.912,21.801 23.718,21.85 23.502,21.85 C23.19,21.85 22.93,21.751 22.722,21.553 C22.514,21.355 22.41,21.06 22.41,20.668 L22.41,20.668 L22.41,18.88 L22.206,18.88 L22.206,20.668 C22.206,20.944 22.257,21.189 22.359,21.403 C22.461,21.617 22.605,21.784 22.791,21.904 C22.977,22.024 23.196,22.084 23.448,22.084 Z M27.072,22.06 C27.36,22.06 27.603,21.988 27.801,21.844 C27.999,21.7 28.156,21.512 28.272,21.28 L28.272,21.28 L28.314,21.28 L28.314,22.03 L28.518,22.03 L28.518,18.88 L28.314,18.88 L28.314,19.552 L28.272,19.552 C28.016,19.036 27.624,18.778 27.096,18.778 C26.8,18.778 26.544,18.852 26.328,19 C26.112,19.148 25.949,19.347 25.839,19.597 C25.729,19.847 25.674,20.122 25.674,20.422 C25.674,20.722 25.729,20.996 25.839,21.244 C25.949,21.492 26.109,21.69 26.319,21.838 C26.529,21.986 26.78,22.06 27.072,22.06 Z M27.09,21.844 C26.702,21.844 26.405,21.71 26.199,21.442 C25.993,21.174 25.89,20.832 25.89,20.416 C25.89,20.004 25.993,19.664 26.199,19.396 C26.405,19.128 26.702,18.994 27.09,18.994 C27.47,18.994 27.765,19.128 27.975,19.396 C28.185,19.664 28.29,20.006 28.29,20.422 C28.29,20.69 28.244,20.932 28.152,21.148 C28.06,21.364 27.924,21.534 27.744,21.658 C27.564,21.782 27.346,21.844 27.09,21.844 Z M29.706,18.25 C29.766,18.25 29.817,18.229 29.859,18.187 C29.901,18.145 29.922,18.094 29.922,18.034 C29.922,17.978 29.901,17.928 29.859,17.884 C29.817,17.84 29.766,17.818 29.706,17.818 C29.646,17.818 29.596,17.839 29.556,17.881 C29.516,17.923 29.496,17.974 29.496,18.034 C29.496,18.094 29.516,18.145 29.556,18.187 C29.596,18.229 29.646,18.25 29.706,18.25 Z M29.814,22.03 L29.814,18.88 L29.61,18.88 L29.61,22.03 L29.814,22.03 Z M31.116,22.03 L31.116,20.194 C31.116,19.958 31.165,19.751 31.263,19.573 C31.361,19.395 31.498,19.257 31.674,19.159 C31.85,19.061 32.05,19.012 32.274,19.012 C32.594,19.012 32.861,19.111 33.075,19.309 C33.289,19.507 33.396,19.802 33.396,20.194 L33.396,20.194 L33.396,22.03 L33.6,22.03 L33.6,20.194 C33.6,19.918 33.548,19.673 33.444,19.459 C33.34,19.245 33.192,19.078 33,18.958 C32.808,18.838 32.584,18.778 32.328,18.778 C32.036,18.778 31.791,18.851 31.593,18.997 C31.395,19.143 31.25,19.32 31.158,19.528 L31.158,19.528 L31.116,19.528 L31.116,18.88 L30.912,18.88 L30.912,22.03 L31.116,22.03 Z M35.568,22.06 C35.712,22.06 35.84,22.04 35.952,22 L35.952,22 L35.952,21.832 C35.828,21.868 35.704,21.886 35.58,21.886 C35.444,21.886 35.347,21.866 35.289,21.826 C35.231,21.786 35.195,21.73 35.181,21.658 C35.167,21.586 35.16,21.472 35.16,21.316 L35.16,21.316 L35.16,19.06 L35.952,19.06 L35.952,18.88 L35.16,18.88 L35.16,17.83 L34.956,17.83 L34.956,18.88 L34.302,18.88 L34.302,19.06 L34.956,19.06 L34.95,21.364 C34.95,21.536 34.966,21.671 34.998,21.769 C35.03,21.867 35.09,21.94 35.178,21.988 C35.266,22.036 35.396,22.06 35.568,22.06 Z M38.094,22.06 C38.438,22.06 38.718,21.969 38.934,21.787 C39.15,21.605 39.302,21.378 39.39,21.106 L39.39,21.106 L39.18,21.106 C39.088,21.338 38.949,21.521 38.763,21.655 C38.577,21.789 38.354,21.856 38.094,21.856 C37.854,21.856 37.642,21.794 37.458,21.67 C37.274,21.546 37.131,21.382 37.029,21.178 C36.927,20.974 36.876,20.758 36.876,20.53 L36.876,20.53 L36.876,20.488 L39.444,20.488 L39.444,20.428 C39.444,19.896 39.321,19.488 39.075,19.204 C38.829,18.92 38.502,18.778 38.094,18.778 C37.782,18.778 37.518,18.856 37.302,19.012 C37.086,19.168 36.924,19.371 36.816,19.621 C36.708,19.871 36.654,20.136 36.654,20.416 C36.654,20.692 36.707,20.956 36.813,21.208 C36.919,21.46 37.081,21.665 37.299,21.823 C37.517,21.981 37.782,22.06 38.094,22.06 Z M39.222,20.296 L36.882,20.296 C36.902,19.912 37.019,19.598 37.233,19.354 C37.447,19.11 37.734,18.988 38.094,18.988 C38.418,18.988 38.681,19.089 38.883,19.291 C39.085,19.493 39.198,19.828 39.222,20.296 L39.222,20.296 Z M41.562,22.06 C41.85,22.06 42.093,21.988 42.291,21.844 C42.489,21.7 42.646,21.512 42.762,21.28 L42.762,21.28 L42.804,21.28 L42.804,22.03 L43.008,22.03 L43.008,17.53 L42.804,17.53 L42.804,19.552 L42.762,19.552 C42.506,19.036 42.114,18.778 41.586,18.778 C41.29,18.778 41.034,18.852 40.818,19 C40.602,19.148 40.439,19.347 40.329,19.597 C40.219,19.847 40.164,20.122 40.164,20.422 C40.164,20.722 40.219,20.996 40.329,21.244 C40.439,21.492 40.599,21.69 40.809,21.838 C41.019,21.986 41.27,22.06 41.562,22.06 Z M41.58,21.844 C41.192,21.844 40.895,21.71 40.689,21.442 C40.483,21.174 40.38,20.832 40.38,20.416 C40.38,20.004 40.483,19.664 40.689,19.396 C40.895,19.128 41.192,18.994 41.58,18.994 C41.96,18.994 42.255,19.128 42.465,19.396 C42.675,19.664 42.78,20.006 42.78,20.422 C42.78,20.69 42.734,20.932 42.642,21.148 C42.55,21.364 42.414,21.534 42.234,21.658 C42.054,21.782 41.836,21.844 41.58,21.844 Z" id="Wellaquainted" fill="#231F20" fill-rule="nonzero"></path>
                                    <g id="Group-4" transform="translate(0.000000, 8.530000)">
                                        <polygon id="Fill-3" fill="#F8AB16" points="4.184 4.991 2.581 4.119 0.955 4.945 1.288 3.152 -7.2475359e-13 1.861 1.809 1.624 2.639 -7.10542736e-15 3.423 1.646 5.225 1.934 3.901 3.189"></polygon>
                                        <polygon id="Fill-4" fill="#F8AB16" points="11.409 4.991 9.806 4.119 8.18 4.945 8.513 3.152 7.225 1.861 9.034 1.624 9.864 -7.10542736e-15 10.648 1.646 12.449 1.934 11.126 3.189"></polygon>
                                        <polygon id="Fill-5" fill="#F8AB16" points="18.633 4.991 17.03 4.119 15.404 4.945 15.737 3.152 14.449 1.861 16.258 1.624 17.088 -7.10542736e-15 17.872 1.646 19.673 1.934 18.35 3.189"></polygon>
                                        <polygon id="Fill-6" fill="#F8AB16" points="25.856 4.991 24.254 4.119 22.627 4.945 22.961 3.152 21.673 1.861 23.482 1.624 24.312 -7.10542736e-15 25.096 1.646 26.897 1.934 25.573 3.189"></polygon>
                                        <polygon id="Fill-7" fill="#58585B" points="30.704 1.624 28.897 1.861 30.185 3.152 29.851 4.945 31.477 4.119 33.079 4.991 32.797 3.189 34.12 1.935 32.319 1.647 31.535 -7.10542736e-15"></polygon>
                                    </g>
                                    <path d="M1.043,5.53 L1.393,4.536 L3.374,4.536 L3.717,5.53 L4.76,5.53 L2.947,0.644 L1.82,0.644 L0,5.53 L1.043,5.53 Z M3.108,3.787 L1.652,3.787 L2.38,1.701 L3.108,3.787 Z M6.86933333,5.579 C7.196,5.579 7.47483333,5.50083333 7.70583333,5.3445 C7.93683333,5.18816667 8.10366667,4.97933333 8.20633333,4.718 L8.20633333,4.718 L8.20633333,5.53 L9.18633333,5.53 L9.18633333,0.35 L8.20633333,0.35 L8.20633333,2.457 C8.10366667,2.19566667 7.93683333,1.988 7.70583333,1.834 C7.47483333,1.68 7.196,1.603 6.86933333,1.603 C6.54266667,1.603 6.24866667,1.68233333 5.98733333,1.841 C5.726,1.99966667 5.52183333,2.2295 5.37483333,2.5305 C5.22783333,2.8315 5.15433333,3.185 5.15433333,3.591 C5.15433333,3.997 5.22783333,4.3505 5.37483333,4.6515 C5.52183333,4.9525 5.726,5.18233333 5.98733333,5.341 C6.24866667,5.49966667 6.54266667,5.579 6.86933333,5.579 Z M7.17733333,4.711 C6.86933333,4.711 6.622,4.61183333 6.43533333,4.4135 C6.24866667,4.21516667 6.15533333,3.941 6.15533333,3.591 C6.15533333,3.241 6.24866667,2.96566667 6.43533333,2.765 C6.622,2.56433333 6.86933333,2.464 7.17733333,2.464 C7.476,2.464 7.72216667,2.5655 7.91583333,2.7685 C8.1095,2.9715 8.20633333,3.24566667 8.20633333,3.591 C8.20633333,3.93166667 8.1095,4.2035 7.91583333,4.4065 C7.72216667,4.6095 7.476,4.711 7.17733333,4.711 Z M11.9326667,5.579 C12.3106667,5.579 12.6501667,5.4985 12.9511667,5.3375 C13.2521667,5.1765 13.489,4.94666667 13.6616667,4.648 C13.8343333,4.34933333 13.9206667,3.997 13.9206667,3.591 C13.9206667,3.185 13.8343333,2.8315 13.6616667,2.5305 C13.489,2.2295 13.2521667,1.99966667 12.9511667,1.841 C12.6501667,1.68233333 12.3106667,1.603 11.9326667,1.603 C11.5546667,1.603 11.2151667,1.68233333 10.9141667,1.841 C10.6131667,1.99966667 10.3763333,2.2295 10.2036667,2.5305 C10.031,2.8315 9.94466667,3.185 9.94466667,3.591 C9.94466667,3.997 10.031,4.34933333 10.2036667,4.648 C10.3763333,4.94666667 10.6131667,5.1765 10.9141667,5.3375 C11.2151667,5.4985 11.5546667,5.579 11.9326667,5.579 Z M11.9326667,4.725 C11.6573333,4.725 11.424,4.62816667 11.2326667,4.4345 C11.0413333,4.24083333 10.9456667,3.95966667 10.9456667,3.591 C10.9456667,3.22233333 11.0413333,2.94116667 11.2326667,2.7475 C11.424,2.55383333 11.6573333,2.457 11.9326667,2.457 C12.208,2.457 12.4413333,2.55383333 12.6326667,2.7475 C12.824,2.94116667 12.9196667,3.22233333 12.9196667,3.591 C12.9196667,3.95966667 12.824,4.24083333 12.6326667,4.4345 C12.4413333,4.62816667 12.208,4.725 11.9326667,4.725 Z M16.961,5.53 L18.396,1.652 L17.346,1.652 L16.366,4.543 L15.379,1.652 L14.322,1.652 L15.757,5.53 L16.961,5.53 Z M20.7433333,5.579 C21.0653333,5.579 21.3581667,5.51833333 21.6218333,5.397 C21.8855,5.27566667 22.1013333,5.10766667 22.2693333,4.893 C22.4373333,4.67833333 22.547,4.43566667 22.5983333,4.165 L22.5983333,4.165 L21.5553333,4.165 C21.5133333,4.35633333 21.4165,4.508 21.2648333,4.62 C21.1131667,4.732 20.923,4.788 20.6943333,4.788 C20.4376667,4.788 20.223,4.70633333 20.0503333,4.543 C19.8776667,4.37966667 19.7843333,4.12533333 19.7703333,3.78 L19.7703333,3.78 L22.6123333,3.78 C22.6356667,3.654 22.6473333,3.542 22.6473333,3.444 C22.6473333,3.08933333 22.5691667,2.77316667 22.4128333,2.4955 C22.2565,2.21783333 22.0348333,1.99966667 21.7478333,1.841 C21.4608333,1.68233333 21.126,1.603 20.7433333,1.603 C20.3653333,1.603 20.0293333,1.68233333 19.7353333,1.841 C19.4413333,1.99966667 19.2126667,2.2295 19.0493333,2.5305 C18.886,2.8315 18.8043333,3.185 18.8043333,3.591 C18.8043333,3.997 18.886,4.34933333 19.0493333,4.648 C19.2126667,4.94666667 19.4413333,5.1765 19.7353333,5.3375 C20.0293333,5.4985 20.3653333,5.579 20.7433333,5.579 Z M21.6533333,3.346 L19.7703333,3.346 C19.789,3.02866667 19.8893333,2.78833333 20.0713333,2.625 C20.2533333,2.46166667 20.4773333,2.38 20.7433333,2.38 C21.0046667,2.38 21.2251667,2.46166667 21.4048333,2.625 C21.5845,2.78833333 21.6673333,3.02866667 21.6533333,3.346 L21.6533333,3.346 Z M27.223,5.572 C27.839,5.572 28.35,5.41333333 28.756,5.096 C29.162,4.77866667 29.4303333,4.347 29.561,3.801 L29.561,3.801 L28.525,3.801 C28.4176667,4.067 28.2508333,4.277 28.0245,4.431 C27.7981667,4.585 27.5263333,4.662 27.209,4.662 C26.9476667,4.662 26.712,4.59666667 26.502,4.466 C26.292,4.33533333 26.1286667,4.14866667 26.012,3.906 C25.8953333,3.66333333 25.837,3.381 25.837,3.059 C25.837,2.73233333 25.8953333,2.44766667 26.012,2.205 C26.1286667,1.96233333 26.292,1.77566667 26.502,1.645 C26.712,1.51433333 26.9476667,1.449 27.209,1.449 C27.5263333,1.449 27.7981667,1.526 28.0245,1.68 C28.2508333,1.834 28.4176667,2.044 28.525,2.31 L28.525,2.31 L29.561,2.31 C29.4303333,1.764 29.162,1.33233333 28.756,1.015 C28.35,0.697666667 27.839,0.539 27.223,0.539 C26.747,0.539 26.3293333,0.645166667 25.97,0.8575 C25.6106667,1.06983333 25.3318333,1.36733333 25.1335,1.75 C24.9351667,2.13266667 24.836,2.569 24.836,3.059 C24.836,3.54433333 24.9351667,3.97833333 25.1335,4.361 C25.3318333,4.74366667 25.6118333,5.04116667 25.9735,5.2535 C26.3351667,5.46583333 26.7516667,5.572 27.223,5.572 Z M31.3483333,5.53 L31.3483333,3.661 C31.3483333,2.989 31.71,2.653 32.4333333,2.653 L32.4333333,2.653 L32.7203333,2.653 L32.7203333,1.596 C32.4263333,1.596 32.1603333,1.66716667 31.9223333,1.8095 C31.6843333,1.95183333 31.493,2.14666667 31.3483333,2.394 L31.3483333,2.394 L31.3483333,1.652 L30.3613333,1.652 L30.3613333,5.53 L31.3483333,5.53 Z M35.0676667,5.579 C35.3896667,5.579 35.6825,5.51833333 35.9461667,5.397 C36.2098333,5.27566667 36.4256667,5.10766667 36.5936667,4.893 C36.7616667,4.67833333 36.8713333,4.43566667 36.9226667,4.165 L36.9226667,4.165 L35.8796667,4.165 C35.8376667,4.35633333 35.7408333,4.508 35.5891667,4.62 C35.4375,4.732 35.2473333,4.788 35.0186667,4.788 C34.762,4.788 34.5473333,4.70633333 34.3746667,4.543 C34.202,4.37966667 34.1086667,4.12533333 34.0946667,3.78 L34.0946667,3.78 L36.9366667,3.78 C36.96,3.654 36.9716667,3.542 36.9716667,3.444 C36.9716667,3.08933333 36.8935,2.77316667 36.7371667,2.4955 C36.5808333,2.21783333 36.3591667,1.99966667 36.0721667,1.841 C35.7851667,1.68233333 35.4503333,1.603 35.0676667,1.603 C34.6896667,1.603 34.3536667,1.68233333 34.0596667,1.841 C33.7656667,1.99966667 33.537,2.2295 33.3736667,2.5305 C33.2103333,2.8315 33.1286667,3.185 33.1286667,3.591 C33.1286667,3.997 33.2103333,4.34933333 33.3736667,4.648 C33.537,4.94666667 33.7656667,5.1765 34.0596667,5.3375 C34.3536667,5.4985 34.6896667,5.579 35.0676667,5.579 Z M35.9776667,3.346 L34.0946667,3.346 C34.1133333,3.02866667 34.2136667,2.78833333 34.3956667,2.625 C34.5776667,2.46166667 34.8016667,2.38 35.0676667,2.38 C35.329,2.38 35.5495,2.46166667 35.7291667,2.625 C35.9088333,2.78833333 35.9916667,3.02866667 35.9776667,3.346 L35.9776667,3.346 Z M39.249,5.579 C39.5756667,5.579 39.8556667,5.50083333 40.089,5.3445 C40.3223333,5.18816667 40.488,4.97933333 40.586,4.718 L40.586,4.718 L40.586,5.53 L41.566,5.53 L41.566,1.652 L40.586,1.652 L40.586,2.457 C40.488,2.19566667 40.3223333,1.988 40.089,1.834 C39.8556667,1.68 39.5756667,1.603 39.249,1.603 C38.9223333,1.603 38.6283333,1.68233333 38.367,1.841 C38.1056667,1.99966667 37.9015,2.2295 37.7545,2.5305 C37.6075,2.8315 37.534,3.185 37.534,3.591 C37.534,3.997 37.6075,4.3505 37.7545,4.6515 C37.9015,4.9525 38.1056667,5.18233333 38.367,5.341 C38.6283333,5.49966667 38.9223333,5.579 39.249,5.579 Z M39.557,4.711 C39.249,4.711 39.0016667,4.61183333 38.815,4.4135 C38.6283333,4.21516667 38.535,3.941 38.535,3.591 C38.535,3.241 38.6283333,2.96566667 38.815,2.765 C39.0016667,2.56433333 39.249,2.464 39.557,2.464 C39.8556667,2.464 40.1018333,2.5655 40.2955,2.7685 C40.4891667,2.9715 40.586,3.24566667 40.586,3.591 C40.586,3.93166667 40.4891667,4.2035 40.2955,4.4065 C40.1018333,4.6095 39.8556667,4.711 39.557,4.711 Z M44.5923333,5.53 L44.5923333,4.683 L44.2073333,4.683 C44.03,4.683 43.904,4.64566667 43.8293333,4.571 C43.7546667,4.49633333 43.7173333,4.36566667 43.7173333,4.179 L43.7173333,4.179 L43.7173333,2.485 L44.5853333,2.485 L44.5853333,1.652 L43.7173333,1.652 L43.7173333,0.693 L42.7303333,0.693 L42.7303333,1.652 L42.1913333,1.652 L42.1913333,2.485 L42.7303333,2.485 L42.7303333,4.165 C42.7303333,4.655 42.8458333,5.005 43.0768333,5.215 C43.3078333,5.425 43.6403333,5.53 44.0743333,5.53 L44.0743333,5.53 L44.5923333,5.53 Z M45.8546667,1.071 C46.0366667,1.071 46.1836667,1.02083333 46.2956667,0.9205 C46.4076667,0.820166667 46.4636667,0.693 46.4636667,0.539 C46.4636667,0.380333333 46.4076667,0.250833333 46.2956667,0.1505 C46.1836667,0.0501666667 46.0366667,0 45.8546667,0 C45.6726667,0 45.5256667,0.0501666667 45.4136667,0.1505 C45.3016667,0.250833333 45.2456667,0.380333333 45.2456667,0.539 C45.2456667,0.693 45.3016667,0.820166667 45.4136667,0.9205 C45.5256667,1.02083333 45.6726667,1.071 45.8546667,1.071 Z M46.3446667,5.53 L46.3446667,1.652 L45.3576667,1.652 L45.3576667,5.53 L46.3446667,5.53 Z M49.581,5.53 L51.016,1.652 L49.966,1.652 L48.986,4.543 L47.999,1.652 L46.942,1.652 L48.377,5.53 L49.581,5.53 Z M53.3633333,5.579 C53.6853333,5.579 53.9781667,5.51833333 54.2418333,5.397 C54.5055,5.27566667 54.7213333,5.10766667 54.8893333,4.893 C55.0573333,4.67833333 55.167,4.43566667 55.2183333,4.165 L55.2183333,4.165 L54.1753333,4.165 C54.1333333,4.35633333 54.0365,4.508 53.8848333,4.62 C53.7331667,4.732 53.543,4.788 53.3143333,4.788 C53.0576667,4.788 52.843,4.70633333 52.6703333,4.543 C52.4976667,4.37966667 52.4043333,4.12533333 52.3903333,3.78 L52.3903333,3.78 L55.2323333,3.78 C55.2556667,3.654 55.2673333,3.542 55.2673333,3.444 C55.2673333,3.08933333 55.1891667,2.77316667 55.0328333,2.4955 C54.8765,2.21783333 54.6548333,1.99966667 54.3678333,1.841 C54.0808333,1.68233333 53.746,1.603 53.3633333,1.603 C52.9853333,1.603 52.6493333,1.68233333 52.3553333,1.841 C52.0613333,1.99966667 51.8326667,2.2295 51.6693333,2.5305 C51.506,2.8315 51.4243333,3.185 51.4243333,3.591 C51.4243333,3.997 51.506,4.34933333 51.6693333,4.648 C51.8326667,4.94666667 52.0613333,5.1765 52.3553333,5.3375 C52.6493333,5.4985 52.9853333,5.579 53.3633333,5.579 Z M54.2733333,3.346 L52.3903333,3.346 C52.409,3.02866667 52.5093333,2.78833333 52.6913333,2.625 C52.8733333,2.46166667 53.0973333,2.38 53.3633333,2.38 C53.6246667,2.38 53.8451667,2.46166667 54.0248333,2.625 C54.2045,2.78833333 54.2873333,3.02866667 54.2733333,3.346 L54.2733333,3.346 Z" id="AdoveCreative" fill="#626A6F" fill-rule="nonzero"></path>
                                </g>
                            </g>
                        </g>
                    </g>
                </g>
            </g>
        </g>
    </g>
</svg>