<?xml version="1.0" encoding="UTF-8"?>
<svg width="80px" height="32px" viewBox="0 0 80 32" version="1.1" xmlns="http://www.w3.org/2000/svg" xmlns:xlink="http://www.w3.org/1999/xlink">
    <title>Figma</title>
    <g id="Figma" stroke="none" stroke-width="1" fill="none" fill-rule="evenodd">
        <rect id="Rectangle-Copy-2" stroke="#626A6F" fill-rule="nonzero" x="2.5" y="2.5" width="27" height="27" rx="4"></rect>
        <path d="M10.136,20 L10.136,16.248 L14.868,16.248 L14.868,14.708 L10.136,14.708 L10.136,11.726 L15.47,11.726 L15.47,10.2 L8.316,10.2 L8.316,20 L10.136,20 Z M20.244,22.814 C22.932,22.814 24.276,21.498 24.276,18.866 L24.276,18.866 L24.276,12.524 L22.61,12.524 L22.61,13.518 C22.3113333,13.154 21.9403333,12.8833333 21.497,12.706 C21.0536667,12.5286667 20.5613333,12.44 20.02,12.44 C19.3106667,12.44 18.669,12.5893333 18.095,12.888 C17.521,13.1866667 17.0683333,13.609 16.737,14.155 C16.4056667,14.701 16.24,15.3286667 16.24,16.038 C16.24,16.7473333 16.4056667,17.3773333 16.737,17.928 C17.0683333,18.4786667 17.521,18.9056667 18.095,19.209 C18.669,19.5123333 19.3106667,19.664 20.02,19.664 C20.5333333,19.664 21.0046667,19.58 21.434,19.412 C21.8633333,19.244 22.2273333,18.9966667 22.526,18.67 L22.526,18.67 L22.526,19.062 C22.526,19.8273333 22.3346667,20.3966667 21.952,20.77 C21.5693333,21.1433333 20.9673333,21.33 20.146,21.33 C19.6326667,21.33 19.1263333,21.2483333 18.627,21.085 C18.1276667,20.9216667 17.7146667,20.7046667 17.388,20.434 L17.388,20.434 L16.604,21.75 C17.024,22.0953333 17.556,22.359 18.2,22.541 C18.844,22.723 19.5253333,22.814 20.244,22.814 Z M20.286,18.18 C19.614,18.18 19.0656667,17.9816667 18.641,17.585 C18.2163333,17.1883333 18.004,16.6726667 18.004,16.038 C18.004,15.4126667 18.2163333,14.904 18.641,14.512 C19.0656667,14.12 19.614,13.924 20.286,13.924 C20.9486667,13.924 21.4923333,14.12 21.917,14.512 C22.3416667,14.904 22.554,15.4126667 22.554,16.038 C22.554,16.6726667 22.3416667,17.1883333 21.917,17.585 C21.4923333,17.9816667 20.9486667,18.18 20.286,18.18 Z" id="Fg" fill="#626A6F" fill-rule="nonzero"></path>
        <g id="Group" transform="translate(34.000000, 4.000000)">
            <path d="M1.542,22.5 L2.844,18.618 L2.88,18.618 L4.182,22.5 L4.548,22.5 L5.718,18.3 L5.514,18.3 L4.374,22.344 L4.338,22.344 L2.97,18.3 L2.76,18.3 L1.386,22.344 L1.35,22.344 L0.21,18.3 L-9.59232693e-14,18.3 L1.176,22.5 L1.542,22.5 Z M7.644,22.53 C7.988,22.53 8.268,22.439 8.484,22.257 C8.7,22.075 8.852,21.848 8.94,21.576 L8.94,21.576 L8.73,21.576 C8.638,21.808 8.499,21.991 8.313,22.125 C8.127,22.259 7.904,22.326 7.644,22.326 C7.404,22.326 7.192,22.264 7.008,22.14 C6.824,22.016 6.681,21.852 6.579,21.648 C6.477,21.444 6.426,21.228 6.426,21 L6.426,21 L6.426,20.958 L8.994,20.958 L8.994,20.898 C8.994,20.366 8.871,19.958 8.625,19.674 C8.379,19.39 8.052,19.248 7.644,19.248 C7.332,19.248 7.068,19.326 6.852,19.482 C6.636,19.638 6.474,19.841 6.366,20.091 C6.258,20.341 6.204,20.606 6.204,20.886 C6.204,21.162 6.257,21.426 6.363,21.678 C6.469,21.93 6.631,22.135 6.849,22.293 C7.067,22.451 7.332,22.53 7.644,22.53 Z M8.772,20.766 L6.432,20.766 C6.452,20.382 6.569,20.068 6.783,19.824 C6.997,19.58 7.284,19.458 7.644,19.458 C7.968,19.458 8.231,19.559 8.433,19.761 C8.635,19.963 8.748,20.298 8.772,20.766 L8.772,20.766 Z M10.536,22.53 C10.632,22.53 10.724,22.52 10.812,22.5 L10.812,22.5 L10.812,22.332 C10.708,22.348 10.62,22.356 10.548,22.356 C10.416,22.356 10.32,22.333 10.26,22.287 C10.2,22.241 10.163,22.178 10.149,22.098 C10.135,22.018 10.128,21.898 10.128,21.738 L10.128,21.738 L10.128,18 L9.924,18 L9.918,21.738 C9.918,21.922 9.931,22.069 9.957,22.179 C9.983,22.289 10.041,22.375 10.131,22.437 C10.221,22.499 10.356,22.53 10.536,22.53 Z M12.252,22.53 C12.348,22.53 12.44,22.52 12.528,22.5 L12.528,22.5 L12.528,22.332 C12.424,22.348 12.336,22.356 12.264,22.356 C12.132,22.356 12.036,22.333 11.976,22.287 C11.916,22.241 11.879,22.178 11.865,22.098 C11.851,22.018 11.844,21.898 11.844,21.738 L11.844,21.738 L11.844,18 L11.64,18 L11.634,21.738 C11.634,21.922 11.647,22.069 11.673,22.179 C11.699,22.289 11.757,22.375 11.847,22.437 C11.937,22.499 12.072,22.53 12.252,22.53 Z M15.924,22.53 C16.212,22.53 16.455,22.458 16.653,22.314 C16.851,22.17 17.008,21.982 17.124,21.75 L17.124,21.75 L17.166,21.75 L17.166,22.5 L17.37,22.5 L17.37,19.35 L17.166,19.35 L17.166,20.022 L17.124,20.022 C16.868,19.506 16.476,19.248 15.948,19.248 C15.652,19.248 15.396,19.322 15.18,19.47 C14.964,19.618 14.801,19.817 14.691,20.067 C14.581,20.317 14.526,20.592 14.526,20.892 C14.526,21.192 14.581,21.466 14.691,21.714 C14.801,21.962 14.961,22.16 15.171,22.308 C15.381,22.456 15.632,22.53 15.924,22.53 Z M15.942,22.314 C15.554,22.314 15.257,22.18 15.051,21.912 C14.845,21.644 14.742,21.302 14.742,20.886 C14.742,20.474 14.845,20.134 15.051,19.866 C15.257,19.598 15.554,19.464 15.942,19.464 C16.322,19.464 16.617,19.598 16.827,19.866 C17.037,20.134 17.142,20.476 17.142,20.892 C17.142,21.16 17.096,21.402 17.004,21.618 C16.912,21.834 16.776,22.004 16.596,22.128 C16.416,22.252 16.198,22.314 15.942,22.314 Z M21.108,23.694 L21.108,19.35 L20.904,19.35 L20.904,20.022 L20.862,20.022 C20.606,19.506 20.214,19.248 19.686,19.248 C19.39,19.248 19.134,19.322 18.918,19.47 C18.702,19.618 18.539,19.817 18.429,20.067 C18.319,20.317 18.264,20.592 18.264,20.892 C18.264,21.192 18.319,21.466 18.429,21.714 C18.539,21.962 18.699,22.16 18.909,22.308 C19.119,22.456 19.37,22.53 19.662,22.53 C19.95,22.53 20.193,22.458 20.391,22.314 C20.589,22.17 20.746,21.982 20.862,21.75 L20.862,21.75 L20.904,21.75 L20.904,23.694 L21.108,23.694 Z M19.68,22.314 C19.292,22.314 18.995,22.18 18.789,21.912 C18.583,21.644 18.48,21.302 18.48,20.886 C18.48,20.474 18.583,20.134 18.789,19.866 C18.995,19.598 19.292,19.464 19.68,19.464 C20.06,19.464 20.355,19.598 20.565,19.866 C20.775,20.134 20.88,20.476 20.88,20.892 C20.88,21.16 20.834,21.402 20.742,21.618 C20.65,21.834 20.514,22.004 20.334,22.128 C20.154,22.252 19.936,22.314 19.68,22.314 Z M23.448,22.554 C23.732,22.554 23.971,22.481 24.165,22.335 C24.359,22.189 24.502,22.012 24.594,21.804 L24.594,21.804 L24.63,21.804 L24.63,22.5 L24.834,22.5 L24.834,19.35 L24.63,19.35 L24.63,21.138 C24.63,21.374 24.582,21.581 24.486,21.759 C24.39,21.937 24.256,22.075 24.084,22.173 C23.912,22.271 23.718,22.32 23.502,22.32 C23.19,22.32 22.93,22.221 22.722,22.023 C22.514,21.825 22.41,21.53 22.41,21.138 L22.41,21.138 L22.41,19.35 L22.206,19.35 L22.206,21.138 C22.206,21.414 22.257,21.659 22.359,21.873 C22.461,22.087 22.605,22.254 22.791,22.374 C22.977,22.494 23.196,22.554 23.448,22.554 Z M27.072,22.53 C27.36,22.53 27.603,22.458 27.801,22.314 C27.999,22.17 28.156,21.982 28.272,21.75 L28.272,21.75 L28.314,21.75 L28.314,22.5 L28.518,22.5 L28.518,19.35 L28.314,19.35 L28.314,20.022 L28.272,20.022 C28.016,19.506 27.624,19.248 27.096,19.248 C26.8,19.248 26.544,19.322 26.328,19.47 C26.112,19.618 25.949,19.817 25.839,20.067 C25.729,20.317 25.674,20.592 25.674,20.892 C25.674,21.192 25.729,21.466 25.839,21.714 C25.949,21.962 26.109,22.16 26.319,22.308 C26.529,22.456 26.78,22.53 27.072,22.53 Z M27.09,22.314 C26.702,22.314 26.405,22.18 26.199,21.912 C25.993,21.644 25.89,21.302 25.89,20.886 C25.89,20.474 25.993,20.134 26.199,19.866 C26.405,19.598 26.702,19.464 27.09,19.464 C27.47,19.464 27.765,19.598 27.975,19.866 C28.185,20.134 28.29,20.476 28.29,20.892 C28.29,21.16 28.244,21.402 28.152,21.618 C28.06,21.834 27.924,22.004 27.744,22.128 C27.564,22.252 27.346,22.314 27.09,22.314 Z M29.706,18.72 C29.766,18.72 29.817,18.699 29.859,18.657 C29.901,18.615 29.922,18.564 29.922,18.504 C29.922,18.448 29.901,18.398 29.859,18.354 C29.817,18.31 29.766,18.288 29.706,18.288 C29.646,18.288 29.596,18.309 29.556,18.351 C29.516,18.393 29.496,18.444 29.496,18.504 C29.496,18.564 29.516,18.615 29.556,18.657 C29.596,18.699 29.646,18.72 29.706,18.72 Z M29.814,22.5 L29.814,19.35 L29.61,19.35 L29.61,22.5 L29.814,22.5 Z M31.116,22.5 L31.116,20.664 C31.116,20.428 31.165,20.221 31.263,20.043 C31.361,19.865 31.498,19.727 31.674,19.629 C31.85,19.531 32.05,19.482 32.274,19.482 C32.594,19.482 32.861,19.581 33.075,19.779 C33.289,19.977 33.396,20.272 33.396,20.664 L33.396,20.664 L33.396,22.5 L33.6,22.5 L33.6,20.664 C33.6,20.388 33.548,20.143 33.444,19.929 C33.34,19.715 33.192,19.548 33,19.428 C32.808,19.308 32.584,19.248 32.328,19.248 C32.036,19.248 31.791,19.321 31.593,19.467 C31.395,19.613 31.25,19.79 31.158,19.998 L31.158,19.998 L31.116,19.998 L31.116,19.35 L30.912,19.35 L30.912,22.5 L31.116,22.5 Z M35.568,22.53 C35.712,22.53 35.84,22.51 35.952,22.47 L35.952,22.47 L35.952,22.302 C35.828,22.338 35.704,22.356 35.58,22.356 C35.444,22.356 35.347,22.336 35.289,22.296 C35.231,22.256 35.195,22.2 35.181,22.128 C35.167,22.056 35.16,21.942 35.16,21.786 L35.16,21.786 L35.16,19.53 L35.952,19.53 L35.952,19.35 L35.16,19.35 L35.16,18.3 L34.956,18.3 L34.956,19.35 L34.302,19.35 L34.302,19.53 L34.956,19.53 L34.95,21.834 C34.95,22.006 34.966,22.141 34.998,22.239 C35.03,22.337 35.09,22.41 35.178,22.458 C35.266,22.506 35.396,22.53 35.568,22.53 Z M38.094,22.53 C38.438,22.53 38.718,22.439 38.934,22.257 C39.15,22.075 39.302,21.848 39.39,21.576 L39.39,21.576 L39.18,21.576 C39.088,21.808 38.949,21.991 38.763,22.125 C38.577,22.259 38.354,22.326 38.094,22.326 C37.854,22.326 37.642,22.264 37.458,22.14 C37.274,22.016 37.131,21.852 37.029,21.648 C36.927,21.444 36.876,21.228 36.876,21 L36.876,21 L36.876,20.958 L39.444,20.958 L39.444,20.898 C39.444,20.366 39.321,19.958 39.075,19.674 C38.829,19.39 38.502,19.248 38.094,19.248 C37.782,19.248 37.518,19.326 37.302,19.482 C37.086,19.638 36.924,19.841 36.816,20.091 C36.708,20.341 36.654,20.606 36.654,20.886 C36.654,21.162 36.707,21.426 36.813,21.678 C36.919,21.93 37.081,22.135 37.299,22.293 C37.517,22.451 37.782,22.53 38.094,22.53 Z M39.222,20.766 L36.882,20.766 C36.902,20.382 37.019,20.068 37.233,19.824 C37.447,19.58 37.734,19.458 38.094,19.458 C38.418,19.458 38.681,19.559 38.883,19.761 C39.085,19.963 39.198,20.298 39.222,20.766 L39.222,20.766 Z M41.562,22.53 C41.85,22.53 42.093,22.458 42.291,22.314 C42.489,22.17 42.646,21.982 42.762,21.75 L42.762,21.75 L42.804,21.75 L42.804,22.5 L43.008,22.5 L43.008,18 L42.804,18 L42.804,20.022 L42.762,20.022 C42.506,19.506 42.114,19.248 41.586,19.248 C41.29,19.248 41.034,19.322 40.818,19.47 C40.602,19.618 40.439,19.817 40.329,20.067 C40.219,20.317 40.164,20.592 40.164,20.892 C40.164,21.192 40.219,21.466 40.329,21.714 C40.439,21.962 40.599,22.16 40.809,22.308 C41.019,22.456 41.27,22.53 41.562,22.53 Z M41.58,22.314 C41.192,22.314 40.895,22.18 40.689,21.912 C40.483,21.644 40.38,21.302 40.38,20.886 C40.38,20.474 40.483,20.134 40.689,19.866 C40.895,19.598 41.192,19.464 41.58,19.464 C41.96,19.464 42.255,19.598 42.465,19.866 C42.675,20.134 42.78,20.476 42.78,20.892 C42.78,21.16 42.734,21.402 42.642,21.618 C42.55,21.834 42.414,22.004 42.234,22.128 C42.054,22.252 41.836,22.314 41.58,22.314 Z" id="Wellaquainted" fill="#231F20" fill-rule="nonzero"></path>
            <g id="Group-4" transform="translate(-0.000000, 9.000000)">
                <polygon id="Fill-3" fill="#F8AB16" points="4.184 4.991 2.581 4.119 0.955 4.945 1.288 3.152 -7.2475359e-13 1.861 1.809 1.624 2.639 -7.10542736e-15 3.423 1.646 5.225 1.934 3.901 3.189"></polygon>
                <polygon id="Fill-4" fill="#F8AB16" points="11.409 4.991 9.806 4.119 8.18 4.945 8.513 3.152 7.225 1.861 9.034 1.624 9.864 -7.10542736e-15 10.648 1.646 12.449 1.934 11.126 3.189"></polygon>
                <polygon id="Fill-5" fill="#F8AB16" points="18.633 4.991 17.03 4.119 15.404 4.945 15.737 3.152 14.449 1.861 16.258 1.624 17.088 -7.10542736e-15 17.872 1.646 19.673 1.934 18.35 3.189"></polygon>
                <polygon id="Fill-6" fill="#F8AB16" points="25.856 4.991 24.254 4.119 22.627 4.945 22.961 3.152 21.673 1.861 23.482 1.624 24.312 -7.10542736e-15 25.096 1.646 26.897 1.934 25.573 3.189"></polygon>
                <polygon id="Fill-7" fill="#58585B" points="30.704 1.624 28.897 1.861 30.185 3.152 29.851 4.945 31.477 4.119 33.079 4.991 32.797 3.189 34.12 1.935 32.319 1.647 31.535 -7.10542736e-15"></polygon>
            </g>
            <path d="M0.987,5.53 L0.987,3.451 L2.653,3.451 L2.653,2.695 L0.987,2.695 L0.987,1.372 L3.066,1.372 L3.066,0.588 L-1.26121336e-13,0.588 L-1.26121336e-13,5.53 L0.987,5.53 Z M4.28633333,1.071 C4.46833333,1.071 4.61533333,1.02083333 4.72733333,0.9205 C4.83933333,0.820166667 4.89533333,0.693 4.89533333,0.539 C4.89533333,0.380333333 4.83933333,0.250833333 4.72733333,0.1505 C4.61533333,0.0501666667 4.46833333,-1.55431223e-14 4.28633333,-1.55431223e-14 C4.10433333,-1.55431223e-14 3.95733333,0.0501666667 3.84533333,0.1505 C3.73333333,0.250833333 3.67733333,0.380333333 3.67733333,0.539 C3.67733333,0.693 3.73333333,0.820166667 3.84533333,0.9205 C3.95733333,1.02083333 4.10433333,1.071 4.28633333,1.071 Z M4.77633333,5.53 L4.77633333,1.652 L3.78933333,1.652 L3.78933333,5.53 L4.77633333,5.53 Z M7.69066667,7.434 C8.092,7.434 8.43383333,7.35233333 8.71616667,7.189 C8.9985,7.02566667 9.21083333,6.8005 9.35316667,6.5135 C9.4955,6.2265 9.56666667,5.90333333 9.56666667,5.544 L9.56666667,5.544 L9.56666667,1.652 L8.58666667,1.652 L8.58666667,2.457 C8.48866667,2.19566667 8.323,1.988 8.08966667,1.834 C7.85633333,1.68 7.57633333,1.603 7.24966667,1.603 C6.923,1.603 6.629,1.68233333 6.36766667,1.841 C6.10633333,1.99966667 5.90216667,2.2295 5.75516667,2.5305 C5.60816667,2.8315 5.53466667,3.185 5.53466667,3.591 C5.53466667,3.997 5.60816667,4.3505 5.75516667,4.6515 C5.90216667,4.9525 6.10633333,5.18233333 6.36766667,5.341 C6.629,5.49966667 6.923,5.579 7.24966667,5.579 C7.57633333,5.579 7.85633333,5.50083333 8.08966667,5.3445 C8.323,5.18816667 8.48866667,4.97933333 8.58666667,4.718 L8.58666667,4.718 L8.58666667,5.544 C8.58666667,5.88933333 8.498,6.14716667 8.32066667,6.3175 C8.14333333,6.48783333 7.91,6.573 7.62066667,6.573 C7.36866667,6.573 7.16216667,6.51816667 7.00116667,6.4085 C6.84016667,6.29883333 6.73166667,6.146 6.67566667,5.95 L6.67566667,5.95 L5.70266667,5.95 C5.77733333,6.40733333 5.98733333,6.769 6.33266667,7.035 C6.678,7.301 7.13066667,7.434 7.69066667,7.434 Z M7.55766667,4.711 C7.24966667,4.711 7.00233333,4.61183333 6.81566667,4.4135 C6.629,4.21516667 6.53566667,3.941 6.53566667,3.591 C6.53566667,3.241 6.629,2.96566667 6.81566667,2.765 C7.00233333,2.56433333 7.24966667,2.464 7.55766667,2.464 C7.85633333,2.464 8.1025,2.5655 8.29616667,2.7685 C8.48983333,2.9715 8.58666667,3.24566667 8.58666667,3.591 C8.58666667,3.93166667 8.48983333,4.2035 8.29616667,4.4065 C8.1025,4.6095 7.85633333,4.711 7.55766667,4.711 Z M11.508,5.53 L11.508,3.472 C11.508,3.14066667 11.5896667,2.88866667 11.753,2.716 C11.9163333,2.54333333 12.1356667,2.457 12.411,2.457 C12.677,2.457 12.8858333,2.5375 13.0375,2.6985 C13.1891667,2.8595 13.265,3.08933333 13.265,3.388 L13.265,3.388 L13.265,5.53 L14.245,5.53 L14.245,3.472 C14.245,3.14066667 14.3266667,2.88866667 14.49,2.716 C14.6533333,2.54333333 14.8726667,2.457 15.148,2.457 C15.414,2.457 15.6228333,2.5375 15.7745,2.6985 C15.9261667,2.8595 16.002,3.08933333 16.002,3.388 L16.002,3.388 L16.002,5.53 L16.982,5.53 L16.982,3.276 C16.982,2.73933333 16.8455,2.32516667 16.5725,2.0335 C16.2995,1.74183333 15.9273333,1.596 15.456,1.596 C15.1573333,1.596 14.8878333,1.67416667 14.6475,1.8305 C14.4071667,1.98683333 14.2263333,2.198 14.105,2.464 C13.9883333,2.184 13.8145,1.96933333 13.5835,1.82 C13.3525,1.67066667 13.0806667,1.596 12.768,1.596 C12.474,1.596 12.2161667,1.66483333 11.9945,1.8025 C11.7728333,1.94016667 11.6106667,2.135 11.508,2.387 L11.508,2.387 L11.508,1.652 L10.521,1.652 L10.521,5.53 L11.508,5.53 Z M19.4273333,5.579 C19.754,5.579 20.034,5.50083333 20.2673333,5.3445 C20.5006667,5.18816667 20.6663333,4.97933333 20.7643333,4.718 L20.7643333,4.718 L20.7643333,5.53 L21.7443333,5.53 L21.7443333,1.652 L20.7643333,1.652 L20.7643333,2.457 C20.6663333,2.19566667 20.5006667,1.988 20.2673333,1.834 C20.034,1.68 19.754,1.603 19.4273333,1.603 C19.1006667,1.603 18.8066667,1.68233333 18.5453333,1.841 C18.284,1.99966667 18.0798333,2.2295 17.9328333,2.5305 C17.7858333,2.8315 17.7123333,3.185 17.7123333,3.591 C17.7123333,3.997 17.7858333,4.3505 17.9328333,4.6515 C18.0798333,4.9525 18.284,5.18233333 18.5453333,5.341 C18.8066667,5.49966667 19.1006667,5.579 19.4273333,5.579 Z M19.7353333,4.711 C19.4273333,4.711 19.18,4.61183333 18.9933333,4.4135 C18.8066667,4.21516667 18.7133333,3.941 18.7133333,3.591 C18.7133333,3.241 18.8066667,2.96566667 18.9933333,2.765 C19.18,2.56433333 19.4273333,2.464 19.7353333,2.464 C20.034,2.464 20.2801667,2.5655 20.4738333,2.7685 C20.6675,2.9715 20.7643333,3.24566667 20.7643333,3.591 C20.7643333,3.93166667 20.6675,4.2035 20.4738333,4.4065 C20.2801667,4.6095 20.034,4.711 19.7353333,4.711 Z" id="Figma" fill="#626A6F" fill-rule="nonzero"></path>
        </g>
    </g>
</svg>