<?xml version="1.0" encoding="UTF-8"?>
<svg width="80px" height="32px" viewBox="0 0 80 32" version="1.1" xmlns="http://www.w3.org/2000/svg" xmlns:xlink="http://www.w3.org/1999/xlink">
    <title>Invision</title>
    <g id="Invision" stroke="none" stroke-width="1" fill="none" fill-rule="evenodd">
        <g id="Group" transform="translate(2.000000, 2.000000)" fill-rule="nonzero">
            <rect id="Rectangle" stroke="#626A6F" x="0.5" y="0.5" width="27" height="27" rx="4"></rect>
            <path d="M10.108,19 L10.108,9.2 L8.288,9.2 L8.288,19 L10.108,19 Z M14.336,19 L14.336,15.22 C14.336,14.492 14.5226667,13.9343333 14.896,13.547 C15.2693333,13.1596667 15.778,12.966 16.422,12.966 C16.9913333,12.966 17.43,13.1316667 17.738,13.463 C18.046,13.7943333 18.2,14.2866667 18.2,14.94 L18.2,14.94 L18.2,19 L19.95,19 L19.95,14.716 C19.95,13.6333333 19.6653333,12.8166667 19.096,12.266 C18.5266667,11.7153333 17.7706667,11.44 16.828,11.44 C16.2773333,11.44 15.7826667,11.5286667 15.344,11.706 C14.9053333,11.8833333 14.5413333,12.1446667 14.252,12.49 L14.252,12.49 L14.252,11.524 L12.586,11.524 L12.586,19 L14.336,19 Z" id="In" fill="#626A6F"></path>
        </g>
        <g id="Group-2" transform="translate(34.000000, 4.000000)">
            <path d="M1.542,22.5 L2.844,18.618 L2.88,18.618 L4.182,22.5 L4.548,22.5 L5.718,18.3 L5.514,18.3 L4.374,22.344 L4.338,22.344 L2.97,18.3 L2.76,18.3 L1.386,22.344 L1.35,22.344 L0.21,18.3 L-9.59232693e-14,18.3 L1.176,22.5 L1.542,22.5 Z M7.644,22.53 C7.988,22.53 8.268,22.439 8.484,22.257 C8.7,22.075 8.852,21.848 8.94,21.576 L8.94,21.576 L8.73,21.576 C8.638,21.808 8.499,21.991 8.313,22.125 C8.127,22.259 7.904,22.326 7.644,22.326 C7.404,22.326 7.192,22.264 7.008,22.14 C6.824,22.016 6.681,21.852 6.579,21.648 C6.477,21.444 6.426,21.228 6.426,21 L6.426,21 L6.426,20.958 L8.994,20.958 L8.994,20.898 C8.994,20.366 8.871,19.958 8.625,19.674 C8.379,19.39 8.052,19.248 7.644,19.248 C7.332,19.248 7.068,19.326 6.852,19.482 C6.636,19.638 6.474,19.841 6.366,20.091 C6.258,20.341 6.204,20.606 6.204,20.886 C6.204,21.162 6.257,21.426 6.363,21.678 C6.469,21.93 6.631,22.135 6.849,22.293 C7.067,22.451 7.332,22.53 7.644,22.53 Z M8.772,20.766 L6.432,20.766 C6.452,20.382 6.569,20.068 6.783,19.824 C6.997,19.58 7.284,19.458 7.644,19.458 C7.968,19.458 8.231,19.559 8.433,19.761 C8.635,19.963 8.748,20.298 8.772,20.766 L8.772,20.766 Z M10.536,22.53 C10.632,22.53 10.724,22.52 10.812,22.5 L10.812,22.5 L10.812,22.332 C10.708,22.348 10.62,22.356 10.548,22.356 C10.416,22.356 10.32,22.333 10.26,22.287 C10.2,22.241 10.163,22.178 10.149,22.098 C10.135,22.018 10.128,21.898 10.128,21.738 L10.128,21.738 L10.128,18 L9.924,18 L9.918,21.738 C9.918,21.922 9.931,22.069 9.957,22.179 C9.983,22.289 10.041,22.375 10.131,22.437 C10.221,22.499 10.356,22.53 10.536,22.53 Z M12.252,22.53 C12.348,22.53 12.44,22.52 12.528,22.5 L12.528,22.5 L12.528,22.332 C12.424,22.348 12.336,22.356 12.264,22.356 C12.132,22.356 12.036,22.333 11.976,22.287 C11.916,22.241 11.879,22.178 11.865,22.098 C11.851,22.018 11.844,21.898 11.844,21.738 L11.844,21.738 L11.844,18 L11.64,18 L11.634,21.738 C11.634,21.922 11.647,22.069 11.673,22.179 C11.699,22.289 11.757,22.375 11.847,22.437 C11.937,22.499 12.072,22.53 12.252,22.53 Z M15.924,22.53 C16.212,22.53 16.455,22.458 16.653,22.314 C16.851,22.17 17.008,21.982 17.124,21.75 L17.124,21.75 L17.166,21.75 L17.166,22.5 L17.37,22.5 L17.37,19.35 L17.166,19.35 L17.166,20.022 L17.124,20.022 C16.868,19.506 16.476,19.248 15.948,19.248 C15.652,19.248 15.396,19.322 15.18,19.47 C14.964,19.618 14.801,19.817 14.691,20.067 C14.581,20.317 14.526,20.592 14.526,20.892 C14.526,21.192 14.581,21.466 14.691,21.714 C14.801,21.962 14.961,22.16 15.171,22.308 C15.381,22.456 15.632,22.53 15.924,22.53 Z M15.942,22.314 C15.554,22.314 15.257,22.18 15.051,21.912 C14.845,21.644 14.742,21.302 14.742,20.886 C14.742,20.474 14.845,20.134 15.051,19.866 C15.257,19.598 15.554,19.464 15.942,19.464 C16.322,19.464 16.617,19.598 16.827,19.866 C17.037,20.134 17.142,20.476 17.142,20.892 C17.142,21.16 17.096,21.402 17.004,21.618 C16.912,21.834 16.776,22.004 16.596,22.128 C16.416,22.252 16.198,22.314 15.942,22.314 Z M21.108,23.694 L21.108,19.35 L20.904,19.35 L20.904,20.022 L20.862,20.022 C20.606,19.506 20.214,19.248 19.686,19.248 C19.39,19.248 19.134,19.322 18.918,19.47 C18.702,19.618 18.539,19.817 18.429,20.067 C18.319,20.317 18.264,20.592 18.264,20.892 C18.264,21.192 18.319,21.466 18.429,21.714 C18.539,21.962 18.699,22.16 18.909,22.308 C19.119,22.456 19.37,22.53 19.662,22.53 C19.95,22.53 20.193,22.458 20.391,22.314 C20.589,22.17 20.746,21.982 20.862,21.75 L20.862,21.75 L20.904,21.75 L20.904,23.694 L21.108,23.694 Z M19.68,22.314 C19.292,22.314 18.995,22.18 18.789,21.912 C18.583,21.644 18.48,21.302 18.48,20.886 C18.48,20.474 18.583,20.134 18.789,19.866 C18.995,19.598 19.292,19.464 19.68,19.464 C20.06,19.464 20.355,19.598 20.565,19.866 C20.775,20.134 20.88,20.476 20.88,20.892 C20.88,21.16 20.834,21.402 20.742,21.618 C20.65,21.834 20.514,22.004 20.334,22.128 C20.154,22.252 19.936,22.314 19.68,22.314 Z M23.448,22.554 C23.732,22.554 23.971,22.481 24.165,22.335 C24.359,22.189 24.502,22.012 24.594,21.804 L24.594,21.804 L24.63,21.804 L24.63,22.5 L24.834,22.5 L24.834,19.35 L24.63,19.35 L24.63,21.138 C24.63,21.374 24.582,21.581 24.486,21.759 C24.39,21.937 24.256,22.075 24.084,22.173 C23.912,22.271 23.718,22.32 23.502,22.32 C23.19,22.32 22.93,22.221 22.722,22.023 C22.514,21.825 22.41,21.53 22.41,21.138 L22.41,21.138 L22.41,19.35 L22.206,19.35 L22.206,21.138 C22.206,21.414 22.257,21.659 22.359,21.873 C22.461,22.087 22.605,22.254 22.791,22.374 C22.977,22.494 23.196,22.554 23.448,22.554 Z M27.072,22.53 C27.36,22.53 27.603,22.458 27.801,22.314 C27.999,22.17 28.156,21.982 28.272,21.75 L28.272,21.75 L28.314,21.75 L28.314,22.5 L28.518,22.5 L28.518,19.35 L28.314,19.35 L28.314,20.022 L28.272,20.022 C28.016,19.506 27.624,19.248 27.096,19.248 C26.8,19.248 26.544,19.322 26.328,19.47 C26.112,19.618 25.949,19.817 25.839,20.067 C25.729,20.317 25.674,20.592 25.674,20.892 C25.674,21.192 25.729,21.466 25.839,21.714 C25.949,21.962 26.109,22.16 26.319,22.308 C26.529,22.456 26.78,22.53 27.072,22.53 Z M27.09,22.314 C26.702,22.314 26.405,22.18 26.199,21.912 C25.993,21.644 25.89,21.302 25.89,20.886 C25.89,20.474 25.993,20.134 26.199,19.866 C26.405,19.598 26.702,19.464 27.09,19.464 C27.47,19.464 27.765,19.598 27.975,19.866 C28.185,20.134 28.29,20.476 28.29,20.892 C28.29,21.16 28.244,21.402 28.152,21.618 C28.06,21.834 27.924,22.004 27.744,22.128 C27.564,22.252 27.346,22.314 27.09,22.314 Z M29.706,18.72 C29.766,18.72 29.817,18.699 29.859,18.657 C29.901,18.615 29.922,18.564 29.922,18.504 C29.922,18.448 29.901,18.398 29.859,18.354 C29.817,18.31 29.766,18.288 29.706,18.288 C29.646,18.288 29.596,18.309 29.556,18.351 C29.516,18.393 29.496,18.444 29.496,18.504 C29.496,18.564 29.516,18.615 29.556,18.657 C29.596,18.699 29.646,18.72 29.706,18.72 Z M29.814,22.5 L29.814,19.35 L29.61,19.35 L29.61,22.5 L29.814,22.5 Z M31.116,22.5 L31.116,20.664 C31.116,20.428 31.165,20.221 31.263,20.043 C31.361,19.865 31.498,19.727 31.674,19.629 C31.85,19.531 32.05,19.482 32.274,19.482 C32.594,19.482 32.861,19.581 33.075,19.779 C33.289,19.977 33.396,20.272 33.396,20.664 L33.396,20.664 L33.396,22.5 L33.6,22.5 L33.6,20.664 C33.6,20.388 33.548,20.143 33.444,19.929 C33.34,19.715 33.192,19.548 33,19.428 C32.808,19.308 32.584,19.248 32.328,19.248 C32.036,19.248 31.791,19.321 31.593,19.467 C31.395,19.613 31.25,19.79 31.158,19.998 L31.158,19.998 L31.116,19.998 L31.116,19.35 L30.912,19.35 L30.912,22.5 L31.116,22.5 Z M35.568,22.53 C35.712,22.53 35.84,22.51 35.952,22.47 L35.952,22.47 L35.952,22.302 C35.828,22.338 35.704,22.356 35.58,22.356 C35.444,22.356 35.347,22.336 35.289,22.296 C35.231,22.256 35.195,22.2 35.181,22.128 C35.167,22.056 35.16,21.942 35.16,21.786 L35.16,21.786 L35.16,19.53 L35.952,19.53 L35.952,19.35 L35.16,19.35 L35.16,18.3 L34.956,18.3 L34.956,19.35 L34.302,19.35 L34.302,19.53 L34.956,19.53 L34.95,21.834 C34.95,22.006 34.966,22.141 34.998,22.239 C35.03,22.337 35.09,22.41 35.178,22.458 C35.266,22.506 35.396,22.53 35.568,22.53 Z M38.094,22.53 C38.438,22.53 38.718,22.439 38.934,22.257 C39.15,22.075 39.302,21.848 39.39,21.576 L39.39,21.576 L39.18,21.576 C39.088,21.808 38.949,21.991 38.763,22.125 C38.577,22.259 38.354,22.326 38.094,22.326 C37.854,22.326 37.642,22.264 37.458,22.14 C37.274,22.016 37.131,21.852 37.029,21.648 C36.927,21.444 36.876,21.228 36.876,21 L36.876,21 L36.876,20.958 L39.444,20.958 L39.444,20.898 C39.444,20.366 39.321,19.958 39.075,19.674 C38.829,19.39 38.502,19.248 38.094,19.248 C37.782,19.248 37.518,19.326 37.302,19.482 C37.086,19.638 36.924,19.841 36.816,20.091 C36.708,20.341 36.654,20.606 36.654,20.886 C36.654,21.162 36.707,21.426 36.813,21.678 C36.919,21.93 37.081,22.135 37.299,22.293 C37.517,22.451 37.782,22.53 38.094,22.53 Z M39.222,20.766 L36.882,20.766 C36.902,20.382 37.019,20.068 37.233,19.824 C37.447,19.58 37.734,19.458 38.094,19.458 C38.418,19.458 38.681,19.559 38.883,19.761 C39.085,19.963 39.198,20.298 39.222,20.766 L39.222,20.766 Z M41.562,22.53 C41.85,22.53 42.093,22.458 42.291,22.314 C42.489,22.17 42.646,21.982 42.762,21.75 L42.762,21.75 L42.804,21.75 L42.804,22.5 L43.008,22.5 L43.008,18 L42.804,18 L42.804,20.022 L42.762,20.022 C42.506,19.506 42.114,19.248 41.586,19.248 C41.29,19.248 41.034,19.322 40.818,19.47 C40.602,19.618 40.439,19.817 40.329,20.067 C40.219,20.317 40.164,20.592 40.164,20.892 C40.164,21.192 40.219,21.466 40.329,21.714 C40.439,21.962 40.599,22.16 40.809,22.308 C41.019,22.456 41.27,22.53 41.562,22.53 Z M41.58,22.314 C41.192,22.314 40.895,22.18 40.689,21.912 C40.483,21.644 40.38,21.302 40.38,20.886 C40.38,20.474 40.483,20.134 40.689,19.866 C40.895,19.598 41.192,19.464 41.58,19.464 C41.96,19.464 42.255,19.598 42.465,19.866 C42.675,20.134 42.78,20.476 42.78,20.892 C42.78,21.16 42.734,21.402 42.642,21.618 C42.55,21.834 42.414,22.004 42.234,22.128 C42.054,22.252 41.836,22.314 41.58,22.314 Z" id="Wellaquainted" fill="#231F20" fill-rule="nonzero"></path>
            <path d="M0.98,5.411 L0.98,0.511 L1.70530257e-13,0.511 L1.70530257e-13,5.411 L0.98,5.411 Z M2.807,5.411 L2.807,3.297 C2.807,3.04033333 2.87,2.8315 2.996,2.6705 C3.122,2.5095 3.30866667,2.429 3.556,2.429 C3.78933333,2.429 3.97016667,2.506 4.0985,2.66 C4.22683333,2.814 4.291,3.02633333 4.291,3.297 L4.291,3.297 L4.291,5.411 L5.257,5.411 L5.257,3.136 C5.257,2.744 5.15783333,2.394 4.9595,2.086 C4.76116667,1.778 4.42166667,1.624 3.941,1.624 C3.675,1.624 3.44866667,1.68816667 3.262,1.8165 C3.07533333,1.94483333 2.94,2.1 2.856,2.282 L2.856,2.282 L2.807,2.282 L2.807,1.715 L1.827,1.715 L1.827,5.411 L2.807,5.411 Z M8.162,5.411 L9.394,1.715 L8.477,1.715 L7.609,4.431 L7.567,4.431 L6.685,1.715 L5.768,1.715 L6.993,5.411 L8.162,5.411 Z M10.514,1.078 C10.668,1.078 10.7963333,1.0255 10.899,0.9205 C11.0016667,0.8155 11.053,0.688333333 11.053,0.539 C11.053,0.389666667 11.0016667,0.2625 10.899,0.1575 C10.7963333,0.0525 10.668,4.84057239e-14 10.514,4.84057239e-14 C10.36,4.84057239e-14 10.2316667,0.0513333333 10.129,0.154 C10.0263333,0.256666667 9.975,0.385 9.975,0.539 C9.975,0.688333333 10.0263333,0.8155 10.129,0.9205 C10.2316667,1.0255 10.36,1.078 10.514,1.078 Z M11.004,5.411 L11.004,1.715 L10.038,1.715 L10.038,5.411 L11.004,5.411 Z M13.286,5.467 C13.5566667,5.467 13.8028333,5.41916667 14.0245,5.3235 C14.2461667,5.22783333 14.42,5.09133333 14.546,4.914 C14.672,4.73666667 14.735,4.53133333 14.735,4.298 C14.735,3.98533333 14.6323333,3.74383333 14.427,3.5735 C14.2216667,3.40316667 13.9696667,3.28533333 13.671,3.22 L13.671,3.22 L13.209,3.129 C13.0736667,3.10566667 12.9605,3.06133333 12.8695,2.996 C12.7785,2.93066667 12.733,2.842 12.733,2.73 C12.733,2.60866667 12.7773333,2.51066667 12.866,2.436 C12.9546667,2.36133333 13.0713333,2.324 13.216,2.324 C13.3886667,2.324 13.517,2.37183333 13.601,2.4675 C13.685,2.56316667 13.727,2.667 13.727,2.779 L13.727,2.779 L13.727,2.8 L14.672,2.8 L14.672,2.772 C14.672,2.57133333 14.616,2.3835 14.504,2.2085 C14.392,2.0335 14.2286667,1.89233333 14.014,1.785 C13.7993333,1.67766667 13.545,1.624 13.251,1.624 C12.8496667,1.624 12.5206667,1.72316667 12.264,1.9215 C12.0073333,2.11983333 11.879,2.394 11.879,2.744 C11.879,3.08466667 11.991,3.339 12.215,3.507 C12.439,3.675 12.6886667,3.78466667 12.964,3.836 L12.964,3.836 L13.384,3.92 C13.51,3.93866667 13.615,3.98066667 13.699,4.046 C13.783,4.11133333 13.825,4.2 13.825,4.312 C13.825,4.438 13.7771667,4.53716667 13.6815,4.6095 C13.5858333,4.68183333 13.461,4.718 13.307,4.718 C13.1203333,4.718 12.978,4.669 12.88,4.571 C12.782,4.473 12.733,4.361 12.733,4.235 L12.733,4.235 L12.733,4.193 L11.788,4.193 L11.788,4.235 C11.788,4.445 11.8463333,4.6445 11.963,4.8335 C12.0796667,5.0225 12.2511667,5.17533333 12.4775,5.292 C12.7038333,5.40866667 12.9733333,5.467 13.286,5.467 Z M15.96,1.078 C16.114,1.078 16.2423333,1.0255 16.345,0.9205 C16.4476667,0.8155 16.499,0.688333333 16.499,0.539 C16.499,0.389666667 16.4476667,0.2625 16.345,0.1575 C16.2423333,0.0525 16.114,4.84057239e-14 15.96,4.84057239e-14 C15.806,4.84057239e-14 15.6776667,0.0513333333 15.575,0.154 C15.4723333,0.256666667 15.421,0.385 15.421,0.539 C15.421,0.688333333 15.4723333,0.8155 15.575,0.9205 C15.6776667,1.0255 15.806,1.078 15.96,1.078 Z M16.45,5.411 L16.45,1.715 L15.484,1.715 L15.484,5.411 L16.45,5.411 Z M19.012,5.467 C19.3993333,5.467 19.726,5.37833333 19.992,5.201 C20.258,5.02366667 20.4563333,4.78916667 20.587,4.4975 C20.7176667,4.20583333 20.783,3.88733333 20.783,3.542 C20.783,3.19666667 20.7176667,2.87933333 20.587,2.59 C20.4563333,2.30066667 20.258,2.0685 19.992,1.8935 C19.726,1.7185 19.3993333,1.631 19.012,1.631 C18.6246667,1.631 18.298,1.71966667 18.032,1.897 C17.766,2.07433333 17.5688333,2.30883333 17.4405,2.6005 C17.3121667,2.89216667 17.248,3.21066667 17.248,3.556 C17.248,3.90133333 17.3133333,4.21866667 17.444,4.508 C17.5746667,4.79733333 17.7718333,5.0295 18.0355,5.2045 C18.2991667,5.3795 18.6246667,5.467 19.012,5.467 Z M19.012,4.683 C18.746,4.683 18.5441667,4.5745 18.4065,4.3575 C18.2688333,4.1405 18.2,3.86866667 18.2,3.542 C18.2,3.21533333 18.2676667,2.94583333 18.403,2.7335 C18.5383333,2.52116667 18.7413333,2.415 19.012,2.415 C19.2826667,2.415 19.4868333,2.52116667 19.6245,2.7335 C19.7621667,2.94583333 19.831,3.21533333 19.831,3.542 C19.831,3.86866667 19.7621667,4.1405 19.6245,4.3575 C19.4868333,4.5745 19.2826667,4.683 19.012,4.683 Z M22.449,5.411 L22.449,3.297 C22.449,3.04033333 22.512,2.8315 22.638,2.6705 C22.764,2.5095 22.9506667,2.429 23.198,2.429 C23.4313333,2.429 23.6121667,2.506 23.7405,2.66 C23.8688333,2.814 23.933,3.02633333 23.933,3.297 L23.933,3.297 L23.933,5.411 L24.899,5.411 L24.899,3.136 C24.899,2.744 24.7998333,2.394 24.6015,2.086 C24.4031667,1.778 24.0636667,1.624 23.583,1.624 C23.317,1.624 23.0906667,1.68816667 22.904,1.8165 C22.7173333,1.94483333 22.582,2.1 22.498,2.282 L22.498,2.282 L22.449,2.282 L22.449,1.715 L21.469,1.715 L21.469,5.411 L22.449,5.411 Z" id="Invision" fill="#626A6F" fill-rule="nonzero"></path>
            <g id="Group-4" transform="translate(-0.000000, 9.000000)">
                <polygon id="Fill-3" fill="#F8AB16" points="4.184 4.991 2.581 4.119 0.955 4.945 1.288 3.152 -7.2475359e-13 1.861 1.809 1.624 2.639 -7.10542736e-15 3.423 1.646 5.225 1.934 3.901 3.189"></polygon>
                <polygon id="Fill-4" fill="#F8AB16" points="11.409 4.991 9.806 4.119 8.18 4.945 8.513 3.152 7.225 1.861 9.034 1.624 9.864 -7.10542736e-15 10.648 1.646 12.449 1.934 11.126 3.189"></polygon>
                <polygon id="Fill-5" fill="#F8AB16" points="18.633 4.991 17.03 4.119 15.404 4.945 15.737 3.152 14.449 1.861 16.258 1.624 17.088 -7.10542736e-15 17.872 1.646 19.673 1.934 18.35 3.189"></polygon>
                <polygon id="Fill-6" fill="#F8AB16" points="25.856 4.991 24.254 4.119 22.627 4.945 22.961 3.152 21.673 1.861 23.482 1.624 24.312 -7.10542736e-15 25.096 1.646 26.897 1.934 25.573 3.189"></polygon>
                <polygon id="Fill-7" fill="#58585B" points="30.704 1.624 28.897 1.861 30.185 3.152 29.851 4.945 31.477 4.119 33.079 4.991 32.797 3.189 34.12 1.935 32.319 1.647 31.535 -7.10542736e-15"></polygon>
            </g>
        </g>
    </g>
</svg>