<?xml version="1.0" encoding="UTF-8"?>
<svg width="80px" height="32px" viewBox="0 0 80 32" version="1.1" xmlns="http://www.w3.org/2000/svg" xmlns:xlink="http://www.w3.org/1999/xlink">
    <title>Marvel</title>
    <g id="Marvel" stroke="none" stroke-width="1" fill="none" fill-rule="evenodd">
        <g id="Rectangle-2" transform="translate(2.000000, 2.000000)" fill-rule="nonzero" stroke="#626A6F">
            <rect id="Rectangle" x="0.5" y="0.5" width="27" height="27" rx="4"></rect>
        </g>
        <polygon id="M" fill="#626A6F" fill-rule="nonzero" points="12.736 20.8 12.736 14.388 15.956 19.68 16.768 19.68 19.988 14.304 20.002 20.8 21.724 20.8 21.71 11 20.212 11 16.39 17.496 12.498 11 11 11 11 20.8"></polygon>
        <g id="Group" transform="translate(34.000000, 4.000000)">
            <path d="M1.54171317,22.4991629 L2.84347098,18.617885 L2.87946429,18.617885 L4.1812221,22.4991629 L4.54715402,22.4991629 L5.71693638,18.2999442 L5.51297433,18.2999442 L4.37318638,22.343192 L4.33719308,22.343192 L2.96944754,18.2999442 L2.75948661,18.2999442 L1.38574219,22.343192 L1.34974888,22.343192 L0.209960938,18.2999442 L0,18.2999442 L1.17578125,22.4991629 L1.54171317,22.4991629 Z M7.64257812,22.5291574 C7.98651414,22.5291574 8.26646205,22.4381743 8.48242187,22.2562081 C8.6983817,22.074242 8.85035342,21.8472842 8.93833705,21.5753348 L8.93833705,21.5753348 L8.72837612,21.5753348 C8.63639323,21.8072917 8.49741908,21.9902576 8.31145368,22.1242327 C8.12548828,22.2582078 7.90252976,22.3251953 7.64257812,22.3251953 C7.40262277,22.3251953 7.1906622,22.2632068 7.00669643,22.1392299 C6.82273065,22.015253 6.67975725,21.8512835 6.57777623,21.6473214 C6.4757952,21.4433594 6.42480469,21.2273996 6.42480469,20.999442 L6.42480469,20.999442 L6.42480469,20.9574498 L8.99232701,20.9574498 L8.99232701,20.8974609 C8.99232701,20.3655599 8.86934989,19.9576358 8.62339565,19.6736886 C8.37744141,19.3897414 8.05050223,19.2477679 7.64257812,19.2477679 C7.33063616,19.2477679 7.06668527,19.3257533 6.85072545,19.4817243 C6.63476563,19.6376953 6.47279576,19.8406576 6.36481585,20.090611 C6.25683594,20.3405645 6.20284598,20.6055153 6.20284598,20.8854632 C6.20284598,21.1614118 6.25583612,21.4253627 6.36181641,21.6773158 C6.46779669,21.929269 6.62976656,22.1342308 6.847726,22.2922015 C7.06568545,22.4501721 7.33063616,22.5291574 7.64257812,22.5291574 Z M8.7703683,20.7654855 L6.43080357,20.7654855 C6.45079985,20.3815569 6.56777809,20.0676153 6.78173828,19.8236607 C6.99569847,19.5797061 7.28264509,19.4577288 7.64257813,19.4577288 C7.96651786,19.4577288 8.22946894,19.55871 8.43143136,19.7606724 C8.63339379,19.9626349 8.74637277,20.2975725 8.7703683,20.7654855 L8.7703683,20.7654855 Z M10.5340402,22.5291574 C10.6300223,22.5291574 10.7220052,22.5191592 10.8099888,22.4991629 L10.8099888,22.4991629 L10.8099888,22.3311942 C10.7060082,22.3471912 10.6180246,22.3551897 10.5460379,22.3551897 C10.4140625,22.3551897 10.3180804,22.332194 10.2580915,22.2862026 C10.1981027,22.2402111 10.1611096,22.1772228 10.1471122,22.0972377 C10.1331148,22.0172526 10.1261161,21.8972749 10.1261161,21.7373047 L10.1261161,21.7373047 L10.1261161,18 L9.92215402,18 L9.91615513,21.7373047 C9.91615513,21.9212705 9.92915272,22.0682431 9.95514788,22.1782227 C9.98114304,22.2882022 10.0391323,22.3741862 10.1291155,22.4361747 C10.2190988,22.4981631 10.3540737,22.5291574 10.5340402,22.5291574 Z M12.249721,22.5291574 C12.3457031,22.5291574 12.437686,22.5191592 12.5256696,22.4991629 L12.5256696,22.4991629 L12.5256696,22.3311942 C12.421689,22.3471912 12.3337054,22.3551897 12.2617187,22.3551897 C12.1297433,22.3551897 12.0337612,22.332194 11.9737723,22.2862026 C11.9137835,22.2402111 11.8767904,22.1772228 11.862793,22.0972377 C11.8487956,22.0172526 11.8417969,21.8972749 11.8417969,21.7373047 L11.8417969,21.7373047 L11.8417969,18 L11.6378348,18 L11.6318359,21.7373047 C11.6318359,21.9212705 11.6448335,22.0682431 11.6708287,22.1782227 C11.6968238,22.2882022 11.7548131,22.3741862 11.8447963,22.4361747 C11.9347796,22.4981631 12.0697545,22.5291574 12.249721,22.5291574 Z M15.9210379,22.5291574 C16.2089844,22.5291574 16.4519392,22.4571708 16.6499023,22.3131975 C16.8478655,22.1692243 17.0048363,21.9812593 17.1208147,21.7493025 L17.1208147,21.7493025 L17.1628069,21.7493025 L17.1628069,22.4991629 L17.366769,22.4991629 L17.366769,19.3497489 L17.1628069,19.3497489 L17.1628069,20.0216239 L17.1208147,20.0216239 C16.8648624,19.5057199 16.4729353,19.2477679 15.9450335,19.2477679 C15.6490885,19.2477679 15.3931362,19.3217541 15.1771763,19.4697266 C14.9612165,19.617699 14.7982468,19.816662 14.6882673,20.0666155 C14.5782878,20.316569 14.523298,20.5915179 14.523298,20.8914621 C14.523298,21.1914062 14.5782878,21.4653553 14.6882673,21.7133092 C14.7982468,21.961263 14.9582171,22.1592262 15.168178,22.3071987 C15.378139,22.4551711 15.6290923,22.5291574 15.9210379,22.5291574 Z M15.9390346,22.3131975 C15.5511068,22.3131975 15.254162,22.1792225 15.0482003,21.9112723 C14.8422387,21.6433222 14.7392578,21.3013858 14.7392578,20.8854632 C14.7392578,20.4735398 14.8422387,20.1336031 15.0482003,19.8656529 C15.254162,19.5977028 15.5511068,19.4637277 15.9390346,19.4637277 C16.3189639,19.4637277 16.613909,19.5977028 16.82387,19.8656529 C17.0338309,20.1336031 17.1388114,20.4755394 17.1388114,20.8914621 C17.1388114,21.1594122 17.0928199,21.4013672 17.0008371,21.617327 C16.9088542,21.8332868 16.7728795,22.0032552 16.5929129,22.1272321 C16.4129464,22.2512091 16.194987,22.3131975 15.9390346,22.3131975 Z M21.1040737,23.6929408 L21.1040737,19.3497489 L20.9001116,19.3497489 L20.9001116,20.0216239 L20.8581194,20.0216239 C20.602167,19.5057199 20.21024,19.2477679 19.6823382,19.2477679 C19.3863932,19.2477679 19.1304408,19.3217541 18.914481,19.4697266 C18.6985212,19.617699 18.5355515,19.816662 18.425572,20.0666155 C18.3155924,20.316569 18.2606027,20.5915179 18.2606027,20.8914621 C18.2606027,21.1914062 18.3155924,21.4653553 18.425572,21.7133092 C18.5355515,21.961263 18.6955218,22.1592262 18.9054827,22.3071987 C19.1154436,22.4551711 19.3663969,22.5291574 19.6583426,22.5291574 C19.9462891,22.5291574 20.1892439,22.4571708 20.387207,22.3131975 C20.5851702,22.1692243 20.742141,21.9812593 20.8581194,21.7493025 L20.8581194,21.7493025 L20.9001116,21.7493025 L20.9001116,23.6929408 L21.1040737,23.6929408 Z M19.6763393,22.3131975 C19.2884115,22.3131975 18.9914667,22.1792225 18.785505,21.9112723 C18.5795433,21.6433222 18.4765625,21.3013858 18.4765625,20.8854632 C18.4765625,20.4735398 18.5795433,20.1336031 18.785505,19.8656529 C18.9914667,19.5977028 19.2884115,19.4637277 19.6763393,19.4637277 C20.0562686,19.4637277 20.3512137,19.5977028 20.5611747,19.8656529 C20.7711356,20.1336031 20.8761161,20.4755394 20.8761161,20.8914621 C20.8761161,21.1594122 20.8301246,21.4013672 20.7381417,21.617327 C20.6461589,21.8332868 20.5101842,22.0032552 20.3302176,22.1272321 C20.1502511,22.2512091 19.9322917,22.3131975 19.6763393,22.3131975 Z M23.4436384,22.5531529 C23.7275856,22.5531529 23.9665411,22.4801665 24.160505,22.3341936 C24.3544689,22.1882208 24.4974423,22.0112537 24.5894252,21.8032924 L24.5894252,21.8032924 L24.6254185,21.8032924 L24.6254185,22.4991629 L24.8293806,22.4991629 L24.8293806,19.3497489 L24.6254185,19.3497489 L24.6254185,21.1374163 C24.6254185,21.3733724 24.5774275,21.5803339 24.4814453,21.7583008 C24.3854632,21.9362677 24.2514881,22.074242 24.0795201,22.1722238 C23.9075521,22.2702055 23.7135882,22.3191964 23.4976283,22.3191964 C23.1856864,22.3191964 22.9257347,22.2202148 22.7177734,22.0222517 C22.5098121,21.8242885 22.4058315,21.5293434 22.4058315,21.1374163 L22.4058315,21.1374163 L22.4058315,19.3497489 L22.2018694,19.3497489 L22.2018694,21.1374163 C22.2018694,21.413365 22.2528599,21.6583194 22.354841,21.8722796 C22.456822,22.0862398 22.6007952,22.2532087 22.7867606,22.3731864 C22.972726,22.4931641 23.1916853,22.5531529 23.4436384,22.5531529 Z M27.0669643,22.5291574 C27.3549107,22.5291574 27.5978655,22.4571708 27.7958287,22.3131975 C27.9937919,22.1692243 28.1507626,21.9812593 28.2667411,21.7493025 L28.2667411,21.7493025 L28.3087333,21.7493025 L28.3087333,22.4991629 L28.5126953,22.4991629 L28.5126953,19.3497489 L28.3087333,19.3497489 L28.3087333,20.0216239 L28.2667411,20.0216239 C28.0107887,19.5057199 27.6188616,19.2477679 27.0909598,19.2477679 C26.7950149,19.2477679 26.5390625,19.3217541 26.3231027,19.4697266 C26.1071429,19.617699 25.9441732,19.816662 25.8341936,20.0666155 C25.7242141,20.316569 25.6692243,20.5915179 25.6692243,20.8914621 C25.6692243,21.1914062 25.7242141,21.4653553 25.8341936,21.7133092 C25.9441732,21.961263 26.1041434,22.1592262 26.3141044,22.3071987 C26.5240653,22.4551711 26.7750186,22.5291574 27.0669643,22.5291574 Z M27.0849609,22.3131975 C26.6970331,22.3131975 26.4000884,22.1792225 26.1941267,21.9112723 C25.988165,21.6433222 25.8851842,21.3013858 25.8851842,20.8854632 C25.8851842,20.4735398 25.988165,20.1336031 26.1941267,19.8656529 C26.4000884,19.5977028 26.6970331,19.4637277 27.0849609,19.4637277 C27.4648903,19.4637277 27.7598354,19.5977028 27.9697963,19.8656529 C28.1797573,20.1336031 28.2847377,20.4755394 28.2847377,20.8914621 C28.2847377,21.1594122 28.2387463,21.4013672 28.1467634,21.617327 C28.0547805,21.8332868 27.9188058,22.0032552 27.7388393,22.1272321 C27.5588728,22.2512091 27.3409133,22.3131975 27.0849609,22.3131975 Z M29.7004743,18.7198661 C29.7604632,18.7198661 29.8114537,18.69887 29.8534459,18.6568778 C29.8954381,18.6148856 29.9164342,18.5638951 29.9164342,18.5039062 C29.9164342,18.4479167 29.8954381,18.397926 29.8534459,18.3539342 C29.8114537,18.3099423 29.7604632,18.2879464 29.7004743,18.2879464 C29.6404855,18.2879464 29.5904948,18.3089425 29.5505022,18.3509347 C29.5105097,18.3929269 29.4905134,18.4439174 29.4905134,18.5039062 C29.4905134,18.5638951 29.5105097,18.6148856 29.5505022,18.6568778 C29.5904948,18.69887 29.6404855,18.7198661 29.7004743,18.7198661 Z M29.8084542,22.4991629 L29.8084542,19.3497489 L29.6044922,19.3497489 L29.6044922,22.4991629 L29.8084542,22.4991629 Z M31.1102121,22.4991629 L31.1102121,20.6635045 C31.1102121,20.4275484 31.1592029,20.2205869 31.2571847,20.04262 C31.3551665,19.8646531 31.492141,19.7266788 31.6681083,19.628697 C31.8440755,19.5307152 32.0440383,19.4817243 32.2679967,19.4817243 C32.5879371,19.4817243 32.8548875,19.5807059 33.0688477,19.7786691 C33.2828078,19.9766323 33.3897879,20.2715774 33.3897879,20.6635045 L33.3897879,20.6635045 L33.3897879,22.4991629 L33.59375,22.4991629 L33.59375,20.6635045 C33.59375,20.3875558 33.5417597,20.1426014 33.437779,19.9286412 C33.3337984,19.714681 33.1858259,19.5477121 32.9938616,19.4277344 C32.8018973,19.3077567 32.577939,19.2477679 32.3219866,19.2477679 C32.0300409,19.2477679 31.7850865,19.3207543 31.5871233,19.4667271 C31.3891602,19.6127 31.2441871,19.789667 31.1522042,19.9976283 L31.1522042,19.9976283 L31.1102121,19.9976283 L31.1102121,19.3497489 L30.90625,19.3497489 L30.90625,22.4991629 L31.1102121,22.4991629 Z M35.5613839,22.5291574 C35.7053571,22.5291574 35.8333333,22.5091611 35.9453125,22.4691685 L35.9453125,22.4691685 L35.9453125,22.3011998 C35.8213356,22.3371931 35.6973586,22.3551897 35.5733817,22.3551897 C35.437407,22.3551897 35.340425,22.3351935 35.2824358,22.2952009 C35.2244466,22.2552083 35.1884533,22.1992187 35.1744559,22.1272321 C35.1604585,22.0552455 35.1534598,21.9412667 35.1534598,21.7852958 L35.1534598,21.7852958 L35.1534598,19.5297154 L35.9453125,19.5297154 L35.9453125,19.3497489 L35.1534598,19.3497489 L35.1534598,18.2999442 L34.9494978,18.2999442 L34.9494978,19.3497489 L34.2956194,19.3497489 L34.2956194,19.5297154 L34.9494978,19.5297154 L34.9434989,21.8332868 C34.9434989,22.0052548 34.9594959,22.1402297 34.99149,22.2382115 C35.023484,22.3361933 35.0834728,22.4091797 35.1714565,22.4571708 C35.2594401,22.5051618 35.3894159,22.5291574 35.5613839,22.5291574 Z M38.0869141,22.5291574 C38.4308501,22.5291574 38.710798,22.4381743 38.9267578,22.2562081 C39.1427176,22.074242 39.2946894,21.8472842 39.382673,21.5753348 L39.382673,21.5753348 L39.1727121,21.5753348 C39.0807292,21.8072917 38.941755,21.9902576 38.7557896,22.1242327 C38.5698242,22.2582078 38.3468657,22.3251953 38.0869141,22.3251953 C37.8469587,22.3251953 37.6349981,22.2632068 37.4510324,22.1392299 C37.2670666,22.015253 37.1240932,21.8512835 37.0221122,21.6473214 C36.9201311,21.4433594 36.8691406,21.2273996 36.8691406,20.999442 L36.8691406,20.999442 L36.8691406,20.9574498 L39.4366629,20.9574498 L39.4366629,20.8974609 C39.4366629,20.3655599 39.3136858,19.9576358 39.0677316,19.6736886 C38.8217773,19.3897414 38.4948382,19.2477679 38.0869141,19.2477679 C37.7749721,19.2477679 37.5110212,19.3257533 37.2950614,19.4817243 C37.0791016,19.6376953 36.9171317,19.8406576 36.8091518,20.090611 C36.7011719,20.3405645 36.6471819,20.6055153 36.6471819,20.8854632 C36.6471819,21.1614118 36.7001721,21.4253627 36.8061523,21.6773158 C36.9121326,21.929269 37.0741025,22.1342308 37.2920619,22.2922015 C37.5100214,22.4501721 37.7749721,22.5291574 38.0869141,22.5291574 Z M39.2147042,20.7654855 L36.8751395,20.7654855 C36.8951358,20.3815569 37.012114,20.0676153 37.2260742,19.8236607 C37.4400344,19.5797061 37.726981,19.4577288 38.0869141,19.4577288 C38.4108538,19.4577288 38.6738049,19.55871 38.8757673,19.7606724 C39.0777297,19.9626349 39.1907087,20.2975725 39.2147042,20.7654855 L39.2147042,20.7654855 Z M41.554269,22.5291574 C41.8422154,22.5291574 42.0851702,22.4571708 42.2831334,22.3131975 C42.4810965,22.1692243 42.6380673,21.9812593 42.7540458,21.7493025 L42.7540458,21.7493025 L42.7960379,21.7493025 L42.7960379,22.4991629 L43,22.4991629 L43,18 L42.7960379,18 L42.7960379,20.0216239 L42.7540458,20.0216239 C42.4980934,19.5057199 42.1061663,19.2477679 41.5782645,19.2477679 C41.2823196,19.2477679 41.0263672,19.3217541 40.8104074,19.4697266 C40.5944475,19.617699 40.4314779,19.816662 40.3214983,20.0666155 C40.2115188,20.316569 40.156529,20.5915179 40.156529,20.8914621 C40.156529,21.1914062 40.2115188,21.4653553 40.3214983,21.7133092 C40.4314779,21.961263 40.5914481,22.1592262 40.801409,22.3071987 C41.01137,22.4551711 41.2623233,22.5291574 41.554269,22.5291574 Z M41.5722656,22.3131975 C41.1843378,22.3131975 40.887393,22.1792225 40.6814314,21.9112723 C40.4754697,21.6433222 40.3724888,21.3013858 40.3724888,20.8854632 C40.3724888,20.4735398 40.4754697,20.1336031 40.6814314,19.8656529 C40.887393,19.5977028 41.1843378,19.4637277 41.5722656,19.4637277 C41.9521949,19.4637277 42.2471401,19.5977028 42.457101,19.8656529 C42.6670619,20.1336031 42.7720424,20.4755394 42.7720424,20.8914621 C42.7720424,21.1594122 42.726051,21.4013672 42.6340681,21.617327 C42.5420852,21.8332868 42.4061105,22.0032552 42.226144,22.1272321 C42.0461775,22.2512091 41.828218,22.3131975 41.5722656,22.3131975 Z" id="Wellaquainted" fill="#231F20" fill-rule="nonzero"></path>
            <path d="M0.952,5.25 L0.952,1.736 L0.987,1.736 L2.226,5.25 L2.856,5.25 L4.088,1.736 L4.123,1.736 L4.123,5.25 L5.075,5.25 L5.075,0.35 L3.633,0.35 L2.548,3.367 L2.527,3.367 L1.442,0.35 L1.04805054e-13,0.35 L1.04805054e-13,5.25 L0.952,5.25 Z M7.182,5.306 C7.49933333,5.306 7.74666667,5.23366667 7.924,5.089 C8.10133333,4.94433333 8.232,4.78566667 8.316,4.613 L8.316,4.613 L8.372,4.613 L8.372,5.25 L9.345,5.25 L9.345,1.554 L8.372,1.554 L8.372,2.128 L8.316,2.128 C8.24133333,1.96933333 8.11533333,1.81883333 7.938,1.6765 C7.76066667,1.53416667 7.51566667,1.463 7.203,1.463 C6.73633333,1.463 6.3735,1.63916667 6.1145,1.9915 C5.8555,2.34383333 5.726,2.81166667 5.726,3.395 C5.726,3.969 5.85433333,4.431 6.111,4.781 C6.36766667,5.131 6.72466667,5.306 7.182,5.306 Z M7.539,4.522 C7.259,4.522 7.05133333,4.41116667 6.916,4.1895 C6.78066667,3.96783333 6.713,3.69833333 6.713,3.381 C6.713,3.06833333 6.78066667,2.80233333 6.916,2.583 C7.05133333,2.36366667 7.259,2.254 7.539,2.254 C7.819,2.254 8.02783333,2.36366667 8.1655,2.583 C8.30316667,2.80233333 8.372,3.06833333 8.372,3.381 C8.372,3.69366667 8.302,3.962 8.162,4.186 C8.022,4.41 7.81433333,4.522 7.539,4.522 Z M11.179,5.25 L11.179,3.402 C11.179,3.052 11.249,2.80116667 11.389,2.6495 C11.529,2.49783333 11.7436667,2.422 12.033,2.422 C12.1636667,2.422 12.2873333,2.43833333 12.404,2.471 L12.404,2.471 L12.446,1.582 C12.376,1.56333333 12.292,1.554 12.194,1.554 C11.9373333,1.554 11.7273333,1.61116667 11.564,1.7255 C11.4006667,1.83983333 11.2886667,1.97866667 11.228,2.142 L11.228,2.142 L11.179,2.142 L11.179,1.554 L10.22,1.554 L10.22,5.25 L11.179,5.25 Z M15.029,5.25 L16.261,1.554 L15.344,1.554 L14.476,4.27 L14.434,4.27 L13.552,1.554 L12.635,1.554 L13.86,5.25 L15.029,5.25 Z M18.445,5.306 C18.8883333,5.306 19.2523333,5.1905 19.537,4.9595 C19.8216667,4.7285 20.013,4.431 20.111,4.067 L20.111,4.067 L19.159,4.067 C19.103,4.21166667 19.012,4.326 18.886,4.41 C18.76,4.494 18.606,4.536 18.424,4.536 C18.1906667,4.536 17.997,4.4555 17.843,4.2945 C17.689,4.1335 17.612,3.941 17.612,3.717 L17.612,3.717 L17.612,3.661 L20.146,3.661 L20.146,3.395 C20.146,2.76966667 19.9931667,2.29133333 19.6875,1.96 C19.3818333,1.62866667 18.97,1.463 18.452,1.463 C18.06,1.463 17.731,1.554 17.465,1.736 C17.199,1.918 17.0018333,2.15483333 16.8735,2.4465 C16.7451667,2.73816667 16.681,3.052 16.681,3.388 C16.681,3.724 16.7451667,4.03783333 16.8735,4.3295 C17.0018333,4.62116667 17.199,4.85683333 17.465,5.0365 C17.731,5.21616667 18.0576667,5.306 18.445,5.306 Z M19.215,3.031 L17.64,3.031 C17.6493333,2.765 17.724,2.555 17.864,2.401 C18.004,2.247 18.1953333,2.17 18.438,2.17 C18.6666667,2.17 18.851,2.24 18.991,2.38 C19.131,2.52 19.2056667,2.737 19.215,3.031 L19.215,3.031 Z M22.008,5.278 C22.1433333,5.278 22.33,5.264 22.568,5.236 L22.568,5.236 L22.568,4.564 C22.4933333,4.57333333 22.428,4.578 22.372,4.578 C22.204,4.578 22.0815,4.5535 22.0045,4.5045 C21.9275,4.4555 21.8808333,4.39016667 21.8645,4.3085 C21.8481667,4.22683333 21.84,4.102 21.84,3.934 L21.84,3.934 L21.84,1.95399252e-14 L20.874,1.95399252e-14 L20.874,4.13 C20.874,4.37266667 20.8938333,4.57216667 20.9335,4.7285 C20.9731667,4.88483333 21.0758333,5.0155 21.2415,5.1205 C21.4071667,5.2255 21.6626667,5.278 22.008,5.278 Z" id="Marvel" fill="#626A6F" fill-rule="nonzero"></path>
            <g id="Group-4" transform="translate(-0.000000, 9.000000)">
                <polygon id="Fill-3" fill="#F8AB16" points="4.184 4.991 2.581 4.119 0.955 4.945 1.288 3.152 -7.2475359e-13 1.861 1.809 1.624 2.639 -7.10542736e-15 3.423 1.646 5.225 1.934 3.901 3.189"></polygon>
                <polygon id="Fill-4" fill="#F8AB16" points="11.409 4.991 9.806 4.119 8.18 4.945 8.513 3.152 7.225 1.861 9.034 1.624 9.864 -7.10542736e-15 10.648 1.646 12.449 1.934 11.126 3.189"></polygon>
                <polygon id="Fill-5" fill="#F8AB16" points="18.633 4.991 17.03 4.119 15.404 4.945 15.737 3.152 14.449 1.861 16.258 1.624 17.088 -7.10542736e-15 17.872 1.646 19.673 1.934 18.35 3.189"></polygon>
                <polygon id="Fill-6" fill="#F8AB16" points="25.856 4.991 24.254 4.119 22.627 4.945 22.961 3.152 21.673 1.861 23.482 1.624 24.312 -7.10542736e-15 25.096 1.646 26.897 1.934 25.573 3.189"></polygon>
                <polygon id="Fill-7" fill="#58585B" points="30.704 1.624 28.897 1.861 30.185 3.152 29.851 4.945 31.477 4.119 33.079 4.991 32.797 3.189 34.12 1.935 32.319 1.647 31.535 -7.10542736e-15"></polygon>
            </g>
        </g>
    </g>
</svg>