<?xml version="1.0" encoding="UTF-8"?>
<svg width="80px" height="32px" viewBox="0 0 80 32" version="1.1" xmlns="http://www.w3.org/2000/svg" xmlns:xlink="http://www.w3.org/1999/xlink">
    <title>Sketch</title>
    <defs>
        <polygon id="path-1" points="4.97379915e-14 0.92027375 26.7555132 0.92027375 26.7555132 24.5644 4.97379915e-14 24.5644"></polygon>
    </defs>
    <g id="Sketch" stroke="none" stroke-width="1" fill="none" fill-rule="evenodd">
        <g id="Group-10" transform="translate(3.000000, 4.000000)">
            <mask id="mask-2" fill="white">
                <use xlink:href="#path-1"></use>
            </mask>
            <g id="Clip-9"></g>
            <path d="M14.6831,2.1924 C15.7421,3.6604 16.7241,5.0214 17.7821,6.4884 C18.2871,4.9854 18.7451,3.6214 19.2251,2.1924 L14.6831,2.1924 Z M9.1831,6.5334 C10.2841,5.0514 11.3121,3.6694 12.3751,2.2374 L7.6061,2.2374 C8.1401,3.6934 8.6431,5.0634 9.1831,6.5334 L9.1831,6.5334 Z M2.1701,6.9804 L8.0141,6.9804 C7.4801,5.5204 6.9701,4.1264 6.4861,2.8014 C5.0731,4.1704 3.6751,5.5234 2.1701,6.9804 L2.1701,6.9804 Z M18.9231,7.0094 L24.9331,7.0094 C23.3691,5.5114 21.9041,4.1084 20.3851,2.6534 C19.8901,4.1304 19.4181,5.5364 18.9231,7.0094 L18.9231,7.0094 Z M10.3601,7.0274 L16.6411,7.0274 C15.5801,5.5574 14.5821,4.1744 13.5461,2.7384 C12.4661,4.1924 11.4441,5.5674 10.3601,7.0274 L10.3601,7.0274 Z M15.3401,19.8964 C15.3811,19.9174 15.4211,19.9364 15.4621,19.9574 C18.5071,16.1094 21.5521,12.2604 24.7261,8.2514 C22.6591,8.2514 20.8001,8.2324 18.9441,8.2774 C18.7321,8.2824 18.4101,8.6114 18.3421,8.8474 C17.7701,10.8464 17.2461,12.8594 16.7041,14.8674 C16.2521,16.5444 15.7951,18.2194 15.3401,19.8964 L15.3401,19.8964 Z M12.1191,20.0054 C12.0991,19.7794 12.1071,19.6934 12.0821,19.6184 C10.9381,15.9894 9.7861,12.3634 8.6511,8.7324 C8.5271,8.3374 8.2761,8.2974 7.9351,8.2984 C6.4981,8.3054 5.0611,8.2984 3.6241,8.2964 C3.1221,8.2964 2.6201,8.2964 1.9561,8.2964 C5.3961,12.2594 8.7131,16.0824 12.1191,20.0054 L12.1191,20.0054 Z M13.7391,20.5494 C13.7861,20.5514 13.8311,20.5544 13.8781,20.5564 C14.9781,16.5054 16.0781,12.4524 17.1881,8.3614 L9.8071,8.3614 C11.1311,12.4664 12.4351,16.5074 13.7391,20.5494 L13.7391,20.5494 Z M-0.0009,7.9304 L-0.0009,7.3914 C1.9571,5.4184 3.9001,3.4284 5.8871,1.4864 C6.1891,1.1914 6.6951,0.9534 7.1091,0.9494 C11.2831,0.9104 15.4571,0.9114 19.6321,0.9474 C20.0561,0.9514 20.5751,1.1584 20.8851,1.4474 C22.7401,3.1754 24.5351,4.9684 26.3761,6.7124 C26.8791,7.1864 26.8601,7.5594 26.4481,8.0774 C22.3401,13.2324 18.2481,18.4004 14.1521,23.5644 L13.6131,23.5644 C13.4001,23.3364 13.1811,23.1134 12.9771,22.8784 C8.6501,17.8954 4.3261,12.9134 -0.0009,7.9304 L-0.0009,7.9304 Z" id="Fill-8" fill="#626A6F" mask="url(#mask-2)"></path>
        </g>
        <g id="Group" transform="translate(34.000000, 4.000000)">
            <path d="M2.4,22.2 L2.4,21.996 L0.204,21.996 L0.204,20.142 L2.19,20.142 L2.19,19.95 L0.204,19.95 L0.204,18.204 L2.4,18.204 L2.4,18 L-1.0125234e-13,18 L-1.0125234e-13,22.2 L2.4,22.2 Z M3.39,22.2 L4.398,20.742 L4.41,20.742 L5.406,22.2 L5.664,22.2 L4.572,20.616 L5.67,19.05 L5.412,19.05 L4.41,20.52 L4.398,20.52 L3.378,19.05 L3.12,19.05 L4.242,20.616 L3.126,22.2 L3.39,22.2 Z M6.834,23.394 L6.834,21.45 L6.876,21.45 C6.992,21.682 7.149,21.87 7.347,22.014 C7.545,22.158 7.788,22.23 8.076,22.23 C8.368,22.23 8.619,22.156 8.829,22.008 C9.039,21.86 9.199,21.662 9.309,21.414 C9.419,21.166 9.474,20.892 9.474,20.592 C9.474,20.292 9.419,20.017 9.309,19.767 C9.199,19.517 9.036,19.318 8.82,19.17 C8.604,19.022 8.348,18.948 8.052,18.948 C7.524,18.948 7.132,19.206 6.876,19.722 L6.876,19.722 L6.834,19.722 L6.834,19.05 L6.63,19.05 L6.63,23.394 L6.834,23.394 Z M8.058,22.014 C7.802,22.014 7.584,21.952 7.404,21.828 C7.224,21.704 7.088,21.534 6.996,21.318 C6.904,21.102 6.858,20.86 6.858,20.592 C6.858,20.176 6.963,19.834 7.173,19.566 C7.383,19.298 7.678,19.164 8.058,19.164 C8.446,19.164 8.743,19.298 8.949,19.566 C9.155,19.834 9.258,20.174 9.258,20.586 C9.258,21.002 9.155,21.344 8.949,21.612 C8.743,21.88 8.446,22.014 8.058,22.014 Z M11.634,22.23 C11.978,22.23 12.258,22.139 12.474,21.957 C12.69,21.775 12.842,21.548 12.93,21.276 L12.93,21.276 L12.72,21.276 C12.628,21.508 12.489,21.691 12.303,21.825 C12.117,21.959 11.894,22.026 11.634,22.026 C11.394,22.026 11.182,21.964 10.998,21.84 C10.814,21.716 10.671,21.552 10.569,21.348 C10.467,21.144 10.416,20.928 10.416,20.7 L10.416,20.7 L10.416,20.658 L12.984,20.658 L12.984,20.598 C12.984,20.066 12.861,19.658 12.615,19.374 C12.369,19.09 12.042,18.948 11.634,18.948 C11.322,18.948 11.058,19.026 10.842,19.182 C10.626,19.338 10.464,19.541 10.356,19.791 C10.248,20.041 10.194,20.306 10.194,20.586 C10.194,20.862 10.247,21.126 10.353,21.378 C10.459,21.63 10.621,21.835 10.839,21.993 C11.057,22.151 11.322,22.23 11.634,22.23 Z M12.762,20.466 L10.422,20.466 C10.442,20.082 10.559,19.768 10.773,19.524 C10.987,19.28 11.274,19.158 11.634,19.158 C11.958,19.158 12.221,19.259 12.423,19.461 C12.625,19.663 12.738,19.998 12.762,20.466 L12.762,20.466 Z M14.046,22.2 L14.046,20.214 C14.046,19.882 14.12,19.645 14.268,19.503 C14.416,19.361 14.598,19.29 14.814,19.29 C14.886,19.29 14.945,19.294 14.991,19.302 C15.037,19.31 15.098,19.324 15.174,19.344 L15.174,19.344 L15.174,19.11 C15.11,19.086 15.056,19.07 15.012,19.062 C14.968,19.054 14.904,19.05 14.82,19.05 C14.636,19.05 14.481,19.099 14.355,19.197 C14.229,19.295 14.136,19.414 14.076,19.554 L14.076,19.554 L14.046,19.554 L14.046,19.05 L13.848,19.05 L13.848,22.2 L14.046,22.2 Z M16.74,22.23 C16.884,22.23 17.012,22.21 17.124,22.17 L17.124,22.17 L17.124,22.002 C17,22.038 16.876,22.056 16.752,22.056 C16.616,22.056 16.519,22.036 16.461,21.996 C16.403,21.956 16.367,21.9 16.353,21.828 C16.339,21.756 16.332,21.642 16.332,21.486 L16.332,21.486 L16.332,19.23 L17.124,19.23 L17.124,19.05 L16.332,19.05 L16.332,18 L16.128,18 L16.128,19.05 L15.474,19.05 L15.474,19.23 L16.128,19.23 L16.122,21.534 C16.122,21.706 16.138,21.841 16.17,21.939 C16.202,22.037 16.262,22.11 16.35,22.158 C16.438,22.206 16.568,22.23 16.74,22.23 Z" id="Expert" fill="#231F20" fill-rule="nonzero"></path>
            <g id="Group-4" transform="translate(-0.000000, 9.000000)">
                <polygon id="Fill-3" fill="#F8AB16" points="4.184 4.991 2.581 4.119 0.955 4.945 1.288 3.152 -7.2475359e-13 1.861 1.809 1.624 2.639 -7.10542736e-15 3.423 1.646 5.225 1.934 3.901 3.189"></polygon>
                <polygon id="Fill-4" fill="#F8AB16" points="11.409 4.991 9.806 4.119 8.18 4.945 8.513 3.152 7.225 1.861 9.034 1.624 9.864 -7.10542736e-15 10.648 1.646 12.449 1.934 11.126 3.189"></polygon>
                <polygon id="Fill-5" fill="#F8AB16" points="18.633 4.991 17.03 4.119 15.404 4.945 15.737 3.152 14.449 1.861 16.258 1.624 17.088 -7.10542736e-15 17.872 1.646 19.673 1.934 18.35 3.189"></polygon>
                <polygon id="Fill-6" fill="#F8AB16" points="25.856 4.991 24.254 4.119 22.627 4.945 22.961 3.152 21.673 1.861 23.482 1.624 24.312 -7.10542736e-15 25.096 1.646 26.897 1.934 25.573 3.189"></polygon>
                <polygon id="Fill-7" fill="#58585B" points="30.704 1.624 28.897 1.861 30.185 3.152 29.851 4.945 31.477 4.119 33.079 4.991 32.797 3.189 34.12 1.935 32.319 1.647 31.535 -7.10542736e-15"></polygon>
            </g>
            <path d="M1.897,5.229 C2.25166667,5.229 2.55266667,5.16483333 2.8,5.0365 C3.04733333,4.90816667 3.234,4.73783333 3.36,4.5255 C3.486,4.31316667 3.549,4.081 3.549,3.829 C3.549,3.51166667 3.479,3.255 3.339,3.059 C3.199,2.863 3.02983333,2.716 2.8315,2.618 C2.63316667,2.52 2.37533333,2.415 2.058,2.303 C1.82933333,2.22833333 1.6485,2.16066667 1.5155,2.1 C1.3825,2.03933333 1.27283333,1.96116667 1.1865,1.8655 C1.10016667,1.76983333 1.057,1.64966667 1.057,1.505 C1.057,1.323 1.113,1.18416667 1.225,1.0885 C1.337,0.992833333 1.484,0.945 1.666,0.945 C1.876,0.945 2.04166667,1.00216667 2.163,1.1165 C2.28433333,1.23083333 2.359,1.37666667 2.387,1.554 L2.387,1.554 L3.451,1.554 C3.409,1.134 3.23283333,0.798 2.9225,0.546 C2.61216667,0.294 2.19566667,0.168 1.673,0.168 C1.169,0.168 0.764166667,0.2905 0.4585,0.5355 C0.152833333,0.7805 6.03961325e-14,1.11533333 6.03961325e-14,1.54 C6.03961325e-14,1.848 0.0688333333,2.09766667 0.2065,2.289 C0.344166667,2.48033333 0.511,2.62616667 0.707,2.7265 C0.903,2.82683333 1.155,2.92833333 1.463,3.031 C1.701,3.11033333 1.88766667,3.18033333 2.023,3.241 C2.15833333,3.30166667 2.27033333,3.38216667 2.359,3.4825 C2.44766667,3.58283333 2.492,3.71 2.492,3.864 C2.492,4.03666667 2.43716667,4.17783333 2.3275,4.2875 C2.21783333,4.39716667 2.06033333,4.452 1.855,4.452 C1.62633333,4.452 1.44316667,4.3855 1.3055,4.2525 C1.16783333,4.1195 1.08733333,3.95266667 1.064,3.752 L1.064,3.752 L0.014,3.752 C0.0373333333,4.05066667 0.131833333,4.312 0.2975,4.536 C0.463166667,4.76 0.683666667,4.9315 0.959,5.0505 C1.23433333,5.1695 1.547,5.229 1.897,5.229 Z M5.32233333,5.18 L5.32233333,3.486 L6.60333333,5.18 L7.80733333,5.18 L6.13433333,3.234 L7.76533333,1.302 L6.59633333,1.302 L5.32233333,2.912 L5.32233333,2.13162821e-14 L4.33533333,2.13162821e-14 L4.33533333,5.18 L5.32233333,5.18 Z M10.0846667,5.229 C10.4066667,5.229 10.6995,5.16833333 10.9631667,5.047 C11.2268333,4.92566667 11.4426667,4.75766667 11.6106667,4.543 C11.7786667,4.32833333 11.8883333,4.08566667 11.9396667,3.815 L11.9396667,3.815 L10.8966667,3.815 C10.8546667,4.00633333 10.7578333,4.158 10.6061667,4.27 C10.4545,4.382 10.2643333,4.438 10.0356667,4.438 C9.779,4.438 9.56433333,4.35633333 9.39166667,4.193 C9.219,4.02966667 9.12566667,3.77533333 9.11166667,3.43 L9.11166667,3.43 L11.9536667,3.43 C11.977,3.304 11.9886667,3.192 11.9886667,3.094 C11.9886667,2.73933333 11.9105,2.42316667 11.7541667,2.1455 C11.5978333,1.86783333 11.3761667,1.64966667 11.0891667,1.491 C10.8021667,1.33233333 10.4673333,1.253 10.0846667,1.253 C9.70666667,1.253 9.37066667,1.33233333 9.07666667,1.491 C8.78266667,1.64966667 8.554,1.8795 8.39066667,2.1805 C8.22733333,2.4815 8.14566667,2.835 8.14566667,3.241 C8.14566667,3.647 8.22733333,3.99933333 8.39066667,4.298 C8.554,4.59666667 8.78266667,4.8265 9.07666667,4.9875 C9.37066667,5.1485 9.70666667,5.229 10.0846667,5.229 Z M10.9946667,2.996 L9.11166667,2.996 C9.13033333,2.67866667 9.23066667,2.43833333 9.41266667,2.275 C9.59466667,2.11166667 9.81866667,2.03 10.0846667,2.03 C10.346,2.03 10.5665,2.11166667 10.7461667,2.275 C10.9258333,2.43833333 11.0086667,2.67866667 10.9946667,2.996 L10.9946667,2.996 Z M14.819,5.18 L14.819,4.333 L14.434,4.333 C14.2566667,4.333 14.1306667,4.29566667 14.056,4.221 C13.9813333,4.14633333 13.944,4.01566667 13.944,3.829 L13.944,3.829 L13.944,2.135 L14.812,2.135 L14.812,1.302 L13.944,1.302 L13.944,0.343 L12.957,0.343 L12.957,1.302 L12.418,1.302 L12.418,2.135 L12.957,2.135 L12.957,3.815 C12.957,4.305 13.0725,4.655 13.3035,4.865 C13.5345,5.075 13.867,5.18 14.301,5.18 L14.301,5.18 L14.819,5.18 Z M17.3273333,5.229 C17.8266667,5.229 18.2431667,5.09366667 18.5768333,4.823 C18.9105,4.55233333 19.1193333,4.18366667 19.2033333,3.717 L19.2033333,3.717 L18.1603333,3.717 C18.1183333,3.92233333 18.0226667,4.0845 17.8733333,4.2035 C17.724,4.3225 17.535,4.382 17.3063333,4.382 C17.045,4.382 16.8268333,4.28516667 16.6518333,4.0915 C16.4768333,3.89783333 16.3893333,3.61433333 16.3893333,3.241 C16.3893333,2.86766667 16.4768333,2.58416667 16.6518333,2.3905 C16.8268333,2.19683333 17.045,2.1 17.3063333,2.1 C17.535,2.1 17.724,2.1595 17.8733333,2.2785 C18.0226667,2.3975 18.1183333,2.55966667 18.1603333,2.765 L18.1603333,2.765 L19.2033333,2.765 C19.1193333,2.29833333 18.9105,1.92966667 18.5768333,1.659 C18.2431667,1.38833333 17.8266667,1.253 17.3273333,1.253 C16.9493333,1.253 16.6133333,1.33233333 16.3193333,1.491 C16.0253333,1.64966667 15.7966667,1.8795 15.6333333,2.1805 C15.47,2.4815 15.3883333,2.835 15.3883333,3.241 C15.3883333,3.647 15.47,3.99933333 15.6333333,4.298 C15.7966667,4.59666667 16.0253333,4.8265 16.3193333,4.9875 C16.6133333,5.1485 16.9493333,5.229 17.3273333,5.229 Z M20.9486667,5.18 L20.9486667,3.122 C20.9486667,2.78133333 21.0326667,2.52 21.2006667,2.338 C21.3686667,2.156 21.5926667,2.065 21.8726667,2.065 C22.148,2.065 22.365,2.15016667 22.5236667,2.3205 C22.6823333,2.49083333 22.7616667,2.73 22.7616667,3.038 L22.7616667,3.038 L22.7616667,5.18 L23.7416667,5.18 L23.7416667,2.926 C23.7416667,2.394 23.6086667,1.981 23.3426667,1.687 C23.0766667,1.393 22.7196667,1.246 22.2716667,1.246 C21.9636667,1.246 21.6918333,1.3195 21.4561667,1.4665 C21.2205,1.6135 21.0513333,1.81766667 20.9486667,2.079 L20.9486667,2.079 L20.9486667,2.13162821e-14 L19.9616667,2.13162821e-14 L19.9616667,5.18 L20.9486667,5.18 Z" id="Sketch" fill="#626A6F" fill-rule="nonzero"></path>
        </g>
    </g>
</svg>