<?xml version="1.0" encoding="UTF-8"?>
<svg width="80px" height="32px" viewBox="0 0 80 32" version="1.1" xmlns="http://www.w3.org/2000/svg" xmlns:xlink="http://www.w3.org/1999/xlink">
    <title>Whimcical</title>
    <defs>
        <rect id="path-1" x="6.48584412" y="2.48528137" width="12" height="12" rx="2"></rect>
        <filter x="-58.3%" y="-41.7%" width="216.7%" height="216.7%" filterUnits="objectBoundingBox" id="filter-2">
            <feOffset dx="0" dy="2" in="SourceAlpha" result="shadowOffsetOuter1"></feOffset>
            <feGaussianBlur stdDeviation="2" in="shadowOffsetOuter1" result="shadowBlurOuter1"></feGaussianBlur>
            <feColorMatrix values="0 0 0 0 0.639436141   0 0 0 0 0.639436141   0 0 0 0 0.639436141  0 0 0 0.5 0" type="matrix" in="shadowBlurOuter1"></feColorMatrix>
        </filter>
    </defs>
    <g id="Whimcical" stroke="none" stroke-width="1" fill="none" fill-rule="evenodd">
        <rect id="Rectangle-Copy-2" stroke="#626A6F" fill-rule="nonzero" x="2.5" y="2.5" width="27" height="27" rx="4"></rect>
        <g id="Group-6" transform="translate(6.000000, 8.000000)">
            <rect id="Rectangle" stroke="#626A6F" transform="translate(8.485281, 8.485281) rotate(45.000000) translate(-8.485281, -8.485281) " x="2.98528137" y="2.98528137" width="11" height="11" rx="2"></rect>
            <g id="Rectangle" transform="translate(12.485844, 8.485281) rotate(45.000000) translate(-12.485844, -8.485281) ">
                <use fill="black" fill-opacity="1" filter="url(#filter-2)" xlink:href="#path-1"></use>
                <use fill="#626A6F" fill-rule="evenodd" xlink:href="#path-1"></use>
            </g>
        </g>
        <g id="Group" transform="translate(34.000000, 4.000000)">
            <path d="M1.542,22.5 L2.844,18.618 L2.88,18.618 L4.182,22.5 L4.548,22.5 L5.718,18.3 L5.514,18.3 L4.374,22.344 L4.338,22.344 L2.97,18.3 L2.76,18.3 L1.386,22.344 L1.35,22.344 L0.21,18.3 L-9.59232693e-14,18.3 L1.176,22.5 L1.542,22.5 Z M7.644,22.53 C7.988,22.53 8.268,22.439 8.484,22.257 C8.7,22.075 8.852,21.848 8.94,21.576 L8.94,21.576 L8.73,21.576 C8.638,21.808 8.499,21.991 8.313,22.125 C8.127,22.259 7.904,22.326 7.644,22.326 C7.404,22.326 7.192,22.264 7.008,22.14 C6.824,22.016 6.681,21.852 6.579,21.648 C6.477,21.444 6.426,21.228 6.426,21 L6.426,21 L6.426,20.958 L8.994,20.958 L8.994,20.898 C8.994,20.366 8.871,19.958 8.625,19.674 C8.379,19.39 8.052,19.248 7.644,19.248 C7.332,19.248 7.068,19.326 6.852,19.482 C6.636,19.638 6.474,19.841 6.366,20.091 C6.258,20.341 6.204,20.606 6.204,20.886 C6.204,21.162 6.257,21.426 6.363,21.678 C6.469,21.93 6.631,22.135 6.849,22.293 C7.067,22.451 7.332,22.53 7.644,22.53 Z M8.772,20.766 L6.432,20.766 C6.452,20.382 6.569,20.068 6.783,19.824 C6.997,19.58 7.284,19.458 7.644,19.458 C7.968,19.458 8.231,19.559 8.433,19.761 C8.635,19.963 8.748,20.298 8.772,20.766 L8.772,20.766 Z M10.536,22.53 C10.632,22.53 10.724,22.52 10.812,22.5 L10.812,22.5 L10.812,22.332 C10.708,22.348 10.62,22.356 10.548,22.356 C10.416,22.356 10.32,22.333 10.26,22.287 C10.2,22.241 10.163,22.178 10.149,22.098 C10.135,22.018 10.128,21.898 10.128,21.738 L10.128,21.738 L10.128,18 L9.924,18 L9.918,21.738 C9.918,21.922 9.931,22.069 9.957,22.179 C9.983,22.289 10.041,22.375 10.131,22.437 C10.221,22.499 10.356,22.53 10.536,22.53 Z M12.252,22.53 C12.348,22.53 12.44,22.52 12.528,22.5 L12.528,22.5 L12.528,22.332 C12.424,22.348 12.336,22.356 12.264,22.356 C12.132,22.356 12.036,22.333 11.976,22.287 C11.916,22.241 11.879,22.178 11.865,22.098 C11.851,22.018 11.844,21.898 11.844,21.738 L11.844,21.738 L11.844,18 L11.64,18 L11.634,21.738 C11.634,21.922 11.647,22.069 11.673,22.179 C11.699,22.289 11.757,22.375 11.847,22.437 C11.937,22.499 12.072,22.53 12.252,22.53 Z M15.924,22.53 C16.212,22.53 16.455,22.458 16.653,22.314 C16.851,22.17 17.008,21.982 17.124,21.75 L17.124,21.75 L17.166,21.75 L17.166,22.5 L17.37,22.5 L17.37,19.35 L17.166,19.35 L17.166,20.022 L17.124,20.022 C16.868,19.506 16.476,19.248 15.948,19.248 C15.652,19.248 15.396,19.322 15.18,19.47 C14.964,19.618 14.801,19.817 14.691,20.067 C14.581,20.317 14.526,20.592 14.526,20.892 C14.526,21.192 14.581,21.466 14.691,21.714 C14.801,21.962 14.961,22.16 15.171,22.308 C15.381,22.456 15.632,22.53 15.924,22.53 Z M15.942,22.314 C15.554,22.314 15.257,22.18 15.051,21.912 C14.845,21.644 14.742,21.302 14.742,20.886 C14.742,20.474 14.845,20.134 15.051,19.866 C15.257,19.598 15.554,19.464 15.942,19.464 C16.322,19.464 16.617,19.598 16.827,19.866 C17.037,20.134 17.142,20.476 17.142,20.892 C17.142,21.16 17.096,21.402 17.004,21.618 C16.912,21.834 16.776,22.004 16.596,22.128 C16.416,22.252 16.198,22.314 15.942,22.314 Z M21.108,23.694 L21.108,19.35 L20.904,19.35 L20.904,20.022 L20.862,20.022 C20.606,19.506 20.214,19.248 19.686,19.248 C19.39,19.248 19.134,19.322 18.918,19.47 C18.702,19.618 18.539,19.817 18.429,20.067 C18.319,20.317 18.264,20.592 18.264,20.892 C18.264,21.192 18.319,21.466 18.429,21.714 C18.539,21.962 18.699,22.16 18.909,22.308 C19.119,22.456 19.37,22.53 19.662,22.53 C19.95,22.53 20.193,22.458 20.391,22.314 C20.589,22.17 20.746,21.982 20.862,21.75 L20.862,21.75 L20.904,21.75 L20.904,23.694 L21.108,23.694 Z M19.68,22.314 C19.292,22.314 18.995,22.18 18.789,21.912 C18.583,21.644 18.48,21.302 18.48,20.886 C18.48,20.474 18.583,20.134 18.789,19.866 C18.995,19.598 19.292,19.464 19.68,19.464 C20.06,19.464 20.355,19.598 20.565,19.866 C20.775,20.134 20.88,20.476 20.88,20.892 C20.88,21.16 20.834,21.402 20.742,21.618 C20.65,21.834 20.514,22.004 20.334,22.128 C20.154,22.252 19.936,22.314 19.68,22.314 Z M23.448,22.554 C23.732,22.554 23.971,22.481 24.165,22.335 C24.359,22.189 24.502,22.012 24.594,21.804 L24.594,21.804 L24.63,21.804 L24.63,22.5 L24.834,22.5 L24.834,19.35 L24.63,19.35 L24.63,21.138 C24.63,21.374 24.582,21.581 24.486,21.759 C24.39,21.937 24.256,22.075 24.084,22.173 C23.912,22.271 23.718,22.32 23.502,22.32 C23.19,22.32 22.93,22.221 22.722,22.023 C22.514,21.825 22.41,21.53 22.41,21.138 L22.41,21.138 L22.41,19.35 L22.206,19.35 L22.206,21.138 C22.206,21.414 22.257,21.659 22.359,21.873 C22.461,22.087 22.605,22.254 22.791,22.374 C22.977,22.494 23.196,22.554 23.448,22.554 Z M27.072,22.53 C27.36,22.53 27.603,22.458 27.801,22.314 C27.999,22.17 28.156,21.982 28.272,21.75 L28.272,21.75 L28.314,21.75 L28.314,22.5 L28.518,22.5 L28.518,19.35 L28.314,19.35 L28.314,20.022 L28.272,20.022 C28.016,19.506 27.624,19.248 27.096,19.248 C26.8,19.248 26.544,19.322 26.328,19.47 C26.112,19.618 25.949,19.817 25.839,20.067 C25.729,20.317 25.674,20.592 25.674,20.892 C25.674,21.192 25.729,21.466 25.839,21.714 C25.949,21.962 26.109,22.16 26.319,22.308 C26.529,22.456 26.78,22.53 27.072,22.53 Z M27.09,22.314 C26.702,22.314 26.405,22.18 26.199,21.912 C25.993,21.644 25.89,21.302 25.89,20.886 C25.89,20.474 25.993,20.134 26.199,19.866 C26.405,19.598 26.702,19.464 27.09,19.464 C27.47,19.464 27.765,19.598 27.975,19.866 C28.185,20.134 28.29,20.476 28.29,20.892 C28.29,21.16 28.244,21.402 28.152,21.618 C28.06,21.834 27.924,22.004 27.744,22.128 C27.564,22.252 27.346,22.314 27.09,22.314 Z M29.706,18.72 C29.766,18.72 29.817,18.699 29.859,18.657 C29.901,18.615 29.922,18.564 29.922,18.504 C29.922,18.448 29.901,18.398 29.859,18.354 C29.817,18.31 29.766,18.288 29.706,18.288 C29.646,18.288 29.596,18.309 29.556,18.351 C29.516,18.393 29.496,18.444 29.496,18.504 C29.496,18.564 29.516,18.615 29.556,18.657 C29.596,18.699 29.646,18.72 29.706,18.72 Z M29.814,22.5 L29.814,19.35 L29.61,19.35 L29.61,22.5 L29.814,22.5 Z M31.116,22.5 L31.116,20.664 C31.116,20.428 31.165,20.221 31.263,20.043 C31.361,19.865 31.498,19.727 31.674,19.629 C31.85,19.531 32.05,19.482 32.274,19.482 C32.594,19.482 32.861,19.581 33.075,19.779 C33.289,19.977 33.396,20.272 33.396,20.664 L33.396,20.664 L33.396,22.5 L33.6,22.5 L33.6,20.664 C33.6,20.388 33.548,20.143 33.444,19.929 C33.34,19.715 33.192,19.548 33,19.428 C32.808,19.308 32.584,19.248 32.328,19.248 C32.036,19.248 31.791,19.321 31.593,19.467 C31.395,19.613 31.25,19.79 31.158,19.998 L31.158,19.998 L31.116,19.998 L31.116,19.35 L30.912,19.35 L30.912,22.5 L31.116,22.5 Z M35.568,22.53 C35.712,22.53 35.84,22.51 35.952,22.47 L35.952,22.47 L35.952,22.302 C35.828,22.338 35.704,22.356 35.58,22.356 C35.444,22.356 35.347,22.336 35.289,22.296 C35.231,22.256 35.195,22.2 35.181,22.128 C35.167,22.056 35.16,21.942 35.16,21.786 L35.16,21.786 L35.16,19.53 L35.952,19.53 L35.952,19.35 L35.16,19.35 L35.16,18.3 L34.956,18.3 L34.956,19.35 L34.302,19.35 L34.302,19.53 L34.956,19.53 L34.95,21.834 C34.95,22.006 34.966,22.141 34.998,22.239 C35.03,22.337 35.09,22.41 35.178,22.458 C35.266,22.506 35.396,22.53 35.568,22.53 Z M38.094,22.53 C38.438,22.53 38.718,22.439 38.934,22.257 C39.15,22.075 39.302,21.848 39.39,21.576 L39.39,21.576 L39.18,21.576 C39.088,21.808 38.949,21.991 38.763,22.125 C38.577,22.259 38.354,22.326 38.094,22.326 C37.854,22.326 37.642,22.264 37.458,22.14 C37.274,22.016 37.131,21.852 37.029,21.648 C36.927,21.444 36.876,21.228 36.876,21 L36.876,21 L36.876,20.958 L39.444,20.958 L39.444,20.898 C39.444,20.366 39.321,19.958 39.075,19.674 C38.829,19.39 38.502,19.248 38.094,19.248 C37.782,19.248 37.518,19.326 37.302,19.482 C37.086,19.638 36.924,19.841 36.816,20.091 C36.708,20.341 36.654,20.606 36.654,20.886 C36.654,21.162 36.707,21.426 36.813,21.678 C36.919,21.93 37.081,22.135 37.299,22.293 C37.517,22.451 37.782,22.53 38.094,22.53 Z M39.222,20.766 L36.882,20.766 C36.902,20.382 37.019,20.068 37.233,19.824 C37.447,19.58 37.734,19.458 38.094,19.458 C38.418,19.458 38.681,19.559 38.883,19.761 C39.085,19.963 39.198,20.298 39.222,20.766 L39.222,20.766 Z M41.562,22.53 C41.85,22.53 42.093,22.458 42.291,22.314 C42.489,22.17 42.646,21.982 42.762,21.75 L42.762,21.75 L42.804,21.75 L42.804,22.5 L43.008,22.5 L43.008,18 L42.804,18 L42.804,20.022 L42.762,20.022 C42.506,19.506 42.114,19.248 41.586,19.248 C41.29,19.248 41.034,19.322 40.818,19.47 C40.602,19.618 40.439,19.817 40.329,20.067 C40.219,20.317 40.164,20.592 40.164,20.892 C40.164,21.192 40.219,21.466 40.329,21.714 C40.439,21.962 40.599,22.16 40.809,22.308 C41.019,22.456 41.27,22.53 41.562,22.53 Z M41.58,22.314 C41.192,22.314 40.895,22.18 40.689,21.912 C40.483,21.644 40.38,21.302 40.38,20.886 C40.38,20.474 40.483,20.134 40.689,19.866 C40.895,19.598 41.192,19.464 41.58,19.464 C41.96,19.464 42.255,19.598 42.465,19.866 C42.675,20.134 42.78,20.476 42.78,20.892 C42.78,21.16 42.734,21.402 42.642,21.618 C42.55,21.834 42.414,22.004 42.234,22.128 C42.054,22.252 41.836,22.314 41.58,22.314 Z" id="Wellaquainted" fill="#231F20" fill-rule="nonzero"></path>
            <g id="Group-4" transform="translate(-0.000000, 9.000000)">
                <polygon id="Fill-3" fill="#F8AB16" points="4.184 4.991 2.581 4.119 0.955 4.945 1.288 3.152 -7.2475359e-13 1.861 1.809 1.624 2.639 -7.10542736e-15 3.423 1.646 5.225 1.934 3.901 3.189"></polygon>
                <polygon id="Fill-4" fill="#F8AB16" points="11.409 4.991 9.806 4.119 8.18 4.945 8.513 3.152 7.225 1.861 9.034 1.624 9.864 -7.10542736e-15 10.648 1.646 12.449 1.934 11.126 3.189"></polygon>
                <polygon id="Fill-5" fill="#F8AB16" points="18.633 4.991 17.03 4.119 15.404 4.945 15.737 3.152 14.449 1.861 16.258 1.624 17.088 -7.10542736e-15 17.872 1.646 19.673 1.934 18.35 3.189"></polygon>
                <polygon id="Fill-6" fill="#F8AB16" points="25.856 4.991 24.254 4.119 22.627 4.945 22.961 3.152 21.673 1.861 23.482 1.624 24.312 -7.10542736e-15 25.096 1.646 26.897 1.934 25.573 3.189"></polygon>
                <polygon id="Fill-7" fill="#58585B" points="30.704 1.624 28.897 1.861 30.185 3.152 29.851 4.945 31.477 4.119 33.079 4.991 32.797 3.189 34.12 1.935 32.319 1.647 31.535 -7.10542736e-15"></polygon>
            </g>
            <path d="M2.26611328,5.53 L3.08300781,2.06076172 L3.86230469,5.53 L4.8671875,5.53 L6.19335938,0.47140625 L5.46533203,0.47140625 L4.49462891,4.15255859 L3.66748047,0.47140625 L2.7890625,0.47140625 L1.91748047,4.17306641 L0.994628906,0.47140625 L0,0.47140625 L1.26123047,5.53 L2.26611328,5.53 Z M7.74821615,5.53 L7.74821615,3.472 C7.74821615,3.13133333 7.83221615,2.87 8.00021615,2.688 C8.16821615,2.506 8.39221615,2.415 8.67221615,2.415 C8.94754948,2.415 9.16454948,2.50016667 9.32321615,2.6705 C9.48188281,2.84083333 9.56121615,3.08 9.56121615,3.388 L9.56121615,3.388 L9.56121615,5.53 L10.5412161,5.53 L10.5412161,3.276 C10.5412161,2.744 10.4082161,2.331 10.1422161,2.037 C9.87621615,1.743 9.51921615,1.596 9.07121615,1.596 C8.76321615,1.596 8.49138281,1.6695 8.25571615,1.8165 C8.02004948,1.9635 7.85088281,2.16766667 7.74821615,2.429 L7.74821615,2.429 L7.74821615,0.35 L6.76121615,0.35 L6.76121615,5.53 L7.74821615,5.53 Z M11.9645495,1.071 C12.1465495,1.071 12.2935495,1.02083333 12.4055495,0.9205 C12.5175495,0.820166667 12.5735495,0.693 12.5735495,0.539 C12.5735495,0.380333333 12.5175495,0.250833333 12.4055495,0.1505 C12.2935495,0.0501666667 12.1465495,0 11.9645495,0 C11.7825495,0 11.6355495,0.0501666667 11.5235495,0.1505 C11.4115495,0.250833333 11.3555495,0.380333333 11.3555495,0.539 C11.3555495,0.693 11.4115495,0.820166667 11.5235495,0.9205 C11.6355495,1.02083333 11.7825495,1.071 11.9645495,1.071 Z M12.4545495,5.53 L12.4545495,1.652 L11.4675495,1.652 L11.4675495,5.53 L12.4545495,5.53 Z M14.3958828,5.53 L14.3958828,3.472 C14.3958828,3.14066667 14.4775495,2.88866667 14.6408828,2.716 C14.8042161,2.54333333 15.0235495,2.457 15.2988828,2.457 C15.5648828,2.457 15.7737161,2.5375 15.9253828,2.6985 C16.0770495,2.8595 16.1528828,3.08933333 16.1528828,3.388 L16.1528828,3.388 L16.1528828,5.53 L17.1328828,5.53 L17.1328828,3.472 C17.1328828,3.14066667 17.2145495,2.88866667 17.3778828,2.716 C17.5412161,2.54333333 17.7605495,2.457 18.0358828,2.457 C18.3018828,2.457 18.5107161,2.5375 18.6623828,2.6985 C18.8140495,2.8595 18.8898828,3.08933333 18.8898828,3.388 L18.8898828,3.388 L18.8898828,5.53 L19.8698828,5.53 L19.8698828,3.276 C19.8698828,2.73933333 19.7333828,2.32516667 19.4603828,2.0335 C19.1873828,1.74183333 18.8152161,1.596 18.3438828,1.596 C18.0452161,1.596 17.7757161,1.67416667 17.5353828,1.8305 C17.2950495,1.98683333 17.1142161,2.198 16.9928828,2.464 C16.8762161,2.184 16.7023828,1.96933333 16.4713828,1.82 C16.2403828,1.67066667 15.9685495,1.596 15.6558828,1.596 C15.3618828,1.596 15.1040495,1.66483333 14.8823828,1.8025 C14.6607161,1.94016667 14.4985495,2.135 14.3958828,2.387 L14.3958828,2.387 L14.3958828,1.652 L13.4088828,1.652 L13.4088828,5.53 L14.3958828,5.53 Z M22.4132161,5.579 C22.8518828,5.579 23.2007161,5.47633333 23.4597161,5.271 C23.7187161,5.06566667 23.8482161,4.79733333 23.8482161,4.466 C23.8482161,4.2 23.7817161,3.98883333 23.6487161,3.8325 C23.5157161,3.67616667 23.3570495,3.56183333 23.1727161,3.4895 C22.9883828,3.41716667 22.7492161,3.34833333 22.4552161,3.283 C22.2452161,3.23166667 22.0842161,3.18733333 21.9722161,3.15 C21.8602161,3.11266667 21.7668828,3.06133333 21.6922161,2.996 C21.6175495,2.93066667 21.5802161,2.84433333 21.5802161,2.737 C21.5802161,2.60166667 21.6268828,2.49433333 21.7202161,2.415 C21.8135495,2.33566667 21.9442161,2.296 22.1122161,2.296 C22.3222161,2.296 22.4925495,2.352 22.6232161,2.464 C22.7538828,2.576 22.8378828,2.72533333 22.8752161,2.912 L22.8752161,2.912 L23.7992161,2.912 C23.7292161,2.51533333 23.5518828,2.198 23.2672161,1.96 C22.9825495,1.722 22.6045495,1.603 22.1332161,1.603 C21.6805495,1.603 21.3258828,1.708 21.0692161,1.918 C20.8125495,2.128 20.6842161,2.401 20.6842161,2.737 C20.6842161,2.99833333 20.7483828,3.20366667 20.8767161,3.353 C21.0050495,3.50233333 21.1590495,3.61083333 21.3387161,3.6785 C21.5183828,3.74616667 21.7528828,3.81266667 22.0422161,3.878 C22.2522161,3.92933333 22.4143828,3.97366667 22.5287161,4.011 C22.6430495,4.04833333 22.7387161,4.102 22.8157161,4.172 C22.8927161,4.242 22.9312161,4.333 22.9312161,4.445 C22.9312161,4.57566667 22.8868828,4.68183333 22.7982161,4.7635 C22.7095495,4.84516667 22.5812161,4.886 22.4132161,4.886 C22.1798828,4.886 21.9908828,4.83116667 21.8462161,4.7215 C21.7015495,4.61183333 21.6175495,4.46133333 21.5942161,4.27 L21.5942161,4.27 L20.6492161,4.27 C20.7145495,4.69 20.8988828,5.01316667 21.2022161,5.2395 C21.5055495,5.46583333 21.9092161,5.579 22.4132161,5.579 Z M25.1385495,1.071 C25.3205495,1.071 25.4675495,1.02083333 25.5795495,0.9205 C25.6915495,0.820166667 25.7475495,0.693 25.7475495,0.539 C25.7475495,0.380333333 25.6915495,0.250833333 25.5795495,0.1505 C25.4675495,0.0501666667 25.3205495,0 25.1385495,0 C24.9565495,0 24.8095495,0.0501666667 24.6975495,0.1505 C24.5855495,0.250833333 24.5295495,0.380333333 24.5295495,0.539 C24.5295495,0.693 24.5855495,0.820166667 24.6975495,0.9205 C24.8095495,1.02083333 24.9565495,1.071 25.1385495,1.071 Z M25.6285495,5.53 L25.6285495,1.652 L24.6415495,1.652 L24.6415495,5.53 L25.6285495,5.53 Z M28.3258828,5.579 C28.8252161,5.579 29.2417161,5.44366667 29.5753828,5.173 C29.9090495,4.90233333 30.1178828,4.53366667 30.2018828,4.067 L30.2018828,4.067 L29.1588828,4.067 C29.1168828,4.27233333 29.0212161,4.4345 28.8718828,4.5535 C28.7225495,4.6725 28.5335495,4.732 28.3048828,4.732 C28.0435495,4.732 27.8253828,4.63516667 27.6503828,4.4415 C27.4753828,4.24783333 27.3878828,3.96433333 27.3878828,3.591 C27.3878828,3.21766667 27.4753828,2.93416667 27.6503828,2.7405 C27.8253828,2.54683333 28.0435495,2.45 28.3048828,2.45 C28.5335495,2.45 28.7225495,2.5095 28.8718828,2.6285 C29.0212161,2.7475 29.1168828,2.90966667 29.1588828,3.115 L29.1588828,3.115 L30.2018828,3.115 C30.1178828,2.64833333 29.9090495,2.27966667 29.5753828,2.009 C29.2417161,1.73833333 28.8252161,1.603 28.3258828,1.603 C27.9478828,1.603 27.6118828,1.68233333 27.3178828,1.841 C27.0238828,1.99966667 26.7952161,2.2295 26.6318828,2.5305 C26.4685495,2.8315 26.3868828,3.185 26.3868828,3.591 C26.3868828,3.997 26.4685495,4.34933333 26.6318828,4.648 C26.7952161,4.94666667 27.0238828,5.1765 27.3178828,5.3375 C27.6118828,5.4985 27.9478828,5.579 28.3258828,5.579 Z M32.4792161,5.579 C32.8058828,5.579 33.0858828,5.50083333 33.3192161,5.3445 C33.5525495,5.18816667 33.7182161,4.97933333 33.8162161,4.718 L33.8162161,4.718 L33.8162161,5.53 L34.7962161,5.53 L34.7962161,1.652 L33.8162161,1.652 L33.8162161,2.457 C33.7182161,2.19566667 33.5525495,1.988 33.3192161,1.834 C33.0858828,1.68 32.8058828,1.603 32.4792161,1.603 C32.1525495,1.603 31.8585495,1.68233333 31.5972161,1.841 C31.3358828,1.99966667 31.1317161,2.2295 30.9847161,2.5305 C30.8377161,2.8315 30.7642161,3.185 30.7642161,3.591 C30.7642161,3.997 30.8377161,4.3505 30.9847161,4.6515 C31.1317161,4.9525 31.3358828,5.18233333 31.5972161,5.341 C31.8585495,5.49966667 32.1525495,5.579 32.4792161,5.579 Z M32.7872161,4.711 C32.4792161,4.711 32.2318828,4.61183333 32.0452161,4.4135 C31.8585495,4.21516667 31.7652161,3.941 31.7652161,3.591 C31.7652161,3.241 31.8585495,2.96566667 32.0452161,2.765 C32.2318828,2.56433333 32.4792161,2.464 32.7872161,2.464 C33.0858828,2.464 33.3320495,2.5655 33.5257161,2.7685 C33.7193828,2.9715 33.8162161,3.24566667 33.8162161,3.591 C33.8162161,3.93166667 33.7193828,4.2035 33.5257161,4.4065 C33.3320495,4.6095 33.0858828,4.711 32.7872161,4.711 Z M36.7375495,5.53 L36.7375495,0.35 L35.7505495,0.35 L35.7505495,5.53 L36.7375495,5.53 Z" id="Whimsical" fill="#626A6F" fill-rule="nonzero"></path>
        </g>
    </g>
</svg>