<?xml version="1.0" encoding="UTF-8"?>
<svg width="80px" height="32px" viewBox="0 0 80 32" version="1.1" xmlns="http://www.w3.org/2000/svg" xmlns:xlink="http://www.w3.org/1999/xlink">
    <title>XD</title>
    <g id="XD" stroke="none" stroke-width="1" fill="none" fill-rule="evenodd">
        <g id="Group" transform="translate(2.000000, 2.000000)" fill-rule="nonzero">
            <rect id="Rectangle" stroke="#626A6F" x="0.5" y="0.5" width="27" height="27" rx="4"></rect>
            <path d="M7.198,19 L9.83,15.276 L12.49,19 L14.59,19 L10.908,13.932 L14.338,9.2 L12.364,9.2 L9.886,12.686 L7.38,9.2 L5.322,9.2 L8.766,14.002 L5.126,19 L7.198,19 Z M18.594,19.098 C19.1073333,19.098 19.5763333,19.0093333 20.001,18.832 C20.4256667,18.6546667 20.7826667,18.3886667 21.072,18.034 L21.072,18.034 L21.072,19 L22.752,19 L22.752,8.612 L21.002,8.612 L21.002,12.448 C20.7126667,12.112 20.3626667,11.86 19.952,11.692 C19.5413333,11.524 19.0886667,11.44 18.594,11.44 C17.8753333,11.44 17.229,11.5986667 16.655,11.916 C16.081,12.2333333 15.6306667,12.6813333 15.304,13.26 C14.9773333,13.8386667 14.814,14.506 14.814,15.262 C14.814,16.018 14.9773333,16.6876667 15.304,17.271 C15.6306667,17.8543333 16.081,18.3046667 16.655,18.622 C17.229,18.9393333 17.8753333,19.098 18.594,19.098 Z M18.804,17.6 C18.384,17.6 18.006,17.5043333 17.67,17.313 C17.334,17.1216667 17.068,16.8486667 16.872,16.494 C16.676,16.1393333 16.578,15.7286667 16.578,15.262 C16.578,14.7953333 16.676,14.3846667 16.872,14.03 C17.068,13.6753333 17.334,13.4023333 17.67,13.211 C18.006,13.0196667 18.384,12.924 18.804,12.924 C19.224,12.924 19.602,13.0196667 19.938,13.211 C20.274,13.4023333 20.54,13.6753333 20.736,14.03 C20.932,14.3846667 21.03,14.7953333 21.03,15.262 C21.03,15.7286667 20.932,16.1393333 20.736,16.494 C20.54,16.8486667 20.274,17.1216667 19.938,17.313 C19.602,17.5043333 19.224,17.6 18.804,17.6 Z" id="Xd" fill="#626A6F"></path>
        </g>
        <g id="Group-2" transform="translate(34.000000, 4.000000)">
            <path d="M1.542,22.5 L2.844,18.618 L2.88,18.618 L4.182,22.5 L4.548,22.5 L5.718,18.3 L5.514,18.3 L4.374,22.344 L4.338,22.344 L2.97,18.3 L2.76,18.3 L1.386,22.344 L1.35,22.344 L0.21,18.3 L-9.59232693e-14,18.3 L1.176,22.5 L1.542,22.5 Z M7.644,22.53 C7.988,22.53 8.268,22.439 8.484,22.257 C8.7,22.075 8.852,21.848 8.94,21.576 L8.94,21.576 L8.73,21.576 C8.638,21.808 8.499,21.991 8.313,22.125 C8.127,22.259 7.904,22.326 7.644,22.326 C7.404,22.326 7.192,22.264 7.008,22.14 C6.824,22.016 6.681,21.852 6.579,21.648 C6.477,21.444 6.426,21.228 6.426,21 L6.426,21 L6.426,20.958 L8.994,20.958 L8.994,20.898 C8.994,20.366 8.871,19.958 8.625,19.674 C8.379,19.39 8.052,19.248 7.644,19.248 C7.332,19.248 7.068,19.326 6.852,19.482 C6.636,19.638 6.474,19.841 6.366,20.091 C6.258,20.341 6.204,20.606 6.204,20.886 C6.204,21.162 6.257,21.426 6.363,21.678 C6.469,21.93 6.631,22.135 6.849,22.293 C7.067,22.451 7.332,22.53 7.644,22.53 Z M8.772,20.766 L6.432,20.766 C6.452,20.382 6.569,20.068 6.783,19.824 C6.997,19.58 7.284,19.458 7.644,19.458 C7.968,19.458 8.231,19.559 8.433,19.761 C8.635,19.963 8.748,20.298 8.772,20.766 L8.772,20.766 Z M10.536,22.53 C10.632,22.53 10.724,22.52 10.812,22.5 L10.812,22.5 L10.812,22.332 C10.708,22.348 10.62,22.356 10.548,22.356 C10.416,22.356 10.32,22.333 10.26,22.287 C10.2,22.241 10.163,22.178 10.149,22.098 C10.135,22.018 10.128,21.898 10.128,21.738 L10.128,21.738 L10.128,18 L9.924,18 L9.918,21.738 C9.918,21.922 9.931,22.069 9.957,22.179 C9.983,22.289 10.041,22.375 10.131,22.437 C10.221,22.499 10.356,22.53 10.536,22.53 Z M12.252,22.53 C12.348,22.53 12.44,22.52 12.528,22.5 L12.528,22.5 L12.528,22.332 C12.424,22.348 12.336,22.356 12.264,22.356 C12.132,22.356 12.036,22.333 11.976,22.287 C11.916,22.241 11.879,22.178 11.865,22.098 C11.851,22.018 11.844,21.898 11.844,21.738 L11.844,21.738 L11.844,18 L11.64,18 L11.634,21.738 C11.634,21.922 11.647,22.069 11.673,22.179 C11.699,22.289 11.757,22.375 11.847,22.437 C11.937,22.499 12.072,22.53 12.252,22.53 Z M15.924,22.53 C16.212,22.53 16.455,22.458 16.653,22.314 C16.851,22.17 17.008,21.982 17.124,21.75 L17.124,21.75 L17.166,21.75 L17.166,22.5 L17.37,22.5 L17.37,19.35 L17.166,19.35 L17.166,20.022 L17.124,20.022 C16.868,19.506 16.476,19.248 15.948,19.248 C15.652,19.248 15.396,19.322 15.18,19.47 C14.964,19.618 14.801,19.817 14.691,20.067 C14.581,20.317 14.526,20.592 14.526,20.892 C14.526,21.192 14.581,21.466 14.691,21.714 C14.801,21.962 14.961,22.16 15.171,22.308 C15.381,22.456 15.632,22.53 15.924,22.53 Z M15.942,22.314 C15.554,22.314 15.257,22.18 15.051,21.912 C14.845,21.644 14.742,21.302 14.742,20.886 C14.742,20.474 14.845,20.134 15.051,19.866 C15.257,19.598 15.554,19.464 15.942,19.464 C16.322,19.464 16.617,19.598 16.827,19.866 C17.037,20.134 17.142,20.476 17.142,20.892 C17.142,21.16 17.096,21.402 17.004,21.618 C16.912,21.834 16.776,22.004 16.596,22.128 C16.416,22.252 16.198,22.314 15.942,22.314 Z M21.108,23.694 L21.108,19.35 L20.904,19.35 L20.904,20.022 L20.862,20.022 C20.606,19.506 20.214,19.248 19.686,19.248 C19.39,19.248 19.134,19.322 18.918,19.47 C18.702,19.618 18.539,19.817 18.429,20.067 C18.319,20.317 18.264,20.592 18.264,20.892 C18.264,21.192 18.319,21.466 18.429,21.714 C18.539,21.962 18.699,22.16 18.909,22.308 C19.119,22.456 19.37,22.53 19.662,22.53 C19.95,22.53 20.193,22.458 20.391,22.314 C20.589,22.17 20.746,21.982 20.862,21.75 L20.862,21.75 L20.904,21.75 L20.904,23.694 L21.108,23.694 Z M19.68,22.314 C19.292,22.314 18.995,22.18 18.789,21.912 C18.583,21.644 18.48,21.302 18.48,20.886 C18.48,20.474 18.583,20.134 18.789,19.866 C18.995,19.598 19.292,19.464 19.68,19.464 C20.06,19.464 20.355,19.598 20.565,19.866 C20.775,20.134 20.88,20.476 20.88,20.892 C20.88,21.16 20.834,21.402 20.742,21.618 C20.65,21.834 20.514,22.004 20.334,22.128 C20.154,22.252 19.936,22.314 19.68,22.314 Z M23.448,22.554 C23.732,22.554 23.971,22.481 24.165,22.335 C24.359,22.189 24.502,22.012 24.594,21.804 L24.594,21.804 L24.63,21.804 L24.63,22.5 L24.834,22.5 L24.834,19.35 L24.63,19.35 L24.63,21.138 C24.63,21.374 24.582,21.581 24.486,21.759 C24.39,21.937 24.256,22.075 24.084,22.173 C23.912,22.271 23.718,22.32 23.502,22.32 C23.19,22.32 22.93,22.221 22.722,22.023 C22.514,21.825 22.41,21.53 22.41,21.138 L22.41,21.138 L22.41,19.35 L22.206,19.35 L22.206,21.138 C22.206,21.414 22.257,21.659 22.359,21.873 C22.461,22.087 22.605,22.254 22.791,22.374 C22.977,22.494 23.196,22.554 23.448,22.554 Z M27.072,22.53 C27.36,22.53 27.603,22.458 27.801,22.314 C27.999,22.17 28.156,21.982 28.272,21.75 L28.272,21.75 L28.314,21.75 L28.314,22.5 L28.518,22.5 L28.518,19.35 L28.314,19.35 L28.314,20.022 L28.272,20.022 C28.016,19.506 27.624,19.248 27.096,19.248 C26.8,19.248 26.544,19.322 26.328,19.47 C26.112,19.618 25.949,19.817 25.839,20.067 C25.729,20.317 25.674,20.592 25.674,20.892 C25.674,21.192 25.729,21.466 25.839,21.714 C25.949,21.962 26.109,22.16 26.319,22.308 C26.529,22.456 26.78,22.53 27.072,22.53 Z M27.09,22.314 C26.702,22.314 26.405,22.18 26.199,21.912 C25.993,21.644 25.89,21.302 25.89,20.886 C25.89,20.474 25.993,20.134 26.199,19.866 C26.405,19.598 26.702,19.464 27.09,19.464 C27.47,19.464 27.765,19.598 27.975,19.866 C28.185,20.134 28.29,20.476 28.29,20.892 C28.29,21.16 28.244,21.402 28.152,21.618 C28.06,21.834 27.924,22.004 27.744,22.128 C27.564,22.252 27.346,22.314 27.09,22.314 Z M29.706,18.72 C29.766,18.72 29.817,18.699 29.859,18.657 C29.901,18.615 29.922,18.564 29.922,18.504 C29.922,18.448 29.901,18.398 29.859,18.354 C29.817,18.31 29.766,18.288 29.706,18.288 C29.646,18.288 29.596,18.309 29.556,18.351 C29.516,18.393 29.496,18.444 29.496,18.504 C29.496,18.564 29.516,18.615 29.556,18.657 C29.596,18.699 29.646,18.72 29.706,18.72 Z M29.814,22.5 L29.814,19.35 L29.61,19.35 L29.61,22.5 L29.814,22.5 Z M31.116,22.5 L31.116,20.664 C31.116,20.428 31.165,20.221 31.263,20.043 C31.361,19.865 31.498,19.727 31.674,19.629 C31.85,19.531 32.05,19.482 32.274,19.482 C32.594,19.482 32.861,19.581 33.075,19.779 C33.289,19.977 33.396,20.272 33.396,20.664 L33.396,20.664 L33.396,22.5 L33.6,22.5 L33.6,20.664 C33.6,20.388 33.548,20.143 33.444,19.929 C33.34,19.715 33.192,19.548 33,19.428 C32.808,19.308 32.584,19.248 32.328,19.248 C32.036,19.248 31.791,19.321 31.593,19.467 C31.395,19.613 31.25,19.79 31.158,19.998 L31.158,19.998 L31.116,19.998 L31.116,19.35 L30.912,19.35 L30.912,22.5 L31.116,22.5 Z M35.568,22.53 C35.712,22.53 35.84,22.51 35.952,22.47 L35.952,22.47 L35.952,22.302 C35.828,22.338 35.704,22.356 35.58,22.356 C35.444,22.356 35.347,22.336 35.289,22.296 C35.231,22.256 35.195,22.2 35.181,22.128 C35.167,22.056 35.16,21.942 35.16,21.786 L35.16,21.786 L35.16,19.53 L35.952,19.53 L35.952,19.35 L35.16,19.35 L35.16,18.3 L34.956,18.3 L34.956,19.35 L34.302,19.35 L34.302,19.53 L34.956,19.53 L34.95,21.834 C34.95,22.006 34.966,22.141 34.998,22.239 C35.03,22.337 35.09,22.41 35.178,22.458 C35.266,22.506 35.396,22.53 35.568,22.53 Z M38.094,22.53 C38.438,22.53 38.718,22.439 38.934,22.257 C39.15,22.075 39.302,21.848 39.39,21.576 L39.39,21.576 L39.18,21.576 C39.088,21.808 38.949,21.991 38.763,22.125 C38.577,22.259 38.354,22.326 38.094,22.326 C37.854,22.326 37.642,22.264 37.458,22.14 C37.274,22.016 37.131,21.852 37.029,21.648 C36.927,21.444 36.876,21.228 36.876,21 L36.876,21 L36.876,20.958 L39.444,20.958 L39.444,20.898 C39.444,20.366 39.321,19.958 39.075,19.674 C38.829,19.39 38.502,19.248 38.094,19.248 C37.782,19.248 37.518,19.326 37.302,19.482 C37.086,19.638 36.924,19.841 36.816,20.091 C36.708,20.341 36.654,20.606 36.654,20.886 C36.654,21.162 36.707,21.426 36.813,21.678 C36.919,21.93 37.081,22.135 37.299,22.293 C37.517,22.451 37.782,22.53 38.094,22.53 Z M39.222,20.766 L36.882,20.766 C36.902,20.382 37.019,20.068 37.233,19.824 C37.447,19.58 37.734,19.458 38.094,19.458 C38.418,19.458 38.681,19.559 38.883,19.761 C39.085,19.963 39.198,20.298 39.222,20.766 L39.222,20.766 Z M41.562,22.53 C41.85,22.53 42.093,22.458 42.291,22.314 C42.489,22.17 42.646,21.982 42.762,21.75 L42.762,21.75 L42.804,21.75 L42.804,22.5 L43.008,22.5 L43.008,18 L42.804,18 L42.804,20.022 L42.762,20.022 C42.506,19.506 42.114,19.248 41.586,19.248 C41.29,19.248 41.034,19.322 40.818,19.47 C40.602,19.618 40.439,19.817 40.329,20.067 C40.219,20.317 40.164,20.592 40.164,20.892 C40.164,21.192 40.219,21.466 40.329,21.714 C40.439,21.962 40.599,22.16 40.809,22.308 C41.019,22.456 41.27,22.53 41.562,22.53 Z M41.58,22.314 C41.192,22.314 40.895,22.18 40.689,21.912 C40.483,21.644 40.38,21.302 40.38,20.886 C40.38,20.474 40.483,20.134 40.689,19.866 C40.895,19.598 41.192,19.464 41.58,19.464 C41.96,19.464 42.255,19.598 42.465,19.866 C42.675,20.134 42.78,20.476 42.78,20.892 C42.78,21.16 42.734,21.402 42.642,21.618 C42.55,21.834 42.414,22.004 42.234,22.128 C42.054,22.252 41.836,22.314 41.58,22.314 Z" id="Wellaquainted" fill="#231F20" fill-rule="nonzero"></path>
            <path d="M1.043,5.18 L1.393,4.186 L3.374,4.186 L3.717,5.18 L4.76,5.18 L2.947,0.294 L1.82,0.294 L1.56319402e-13,5.18 L1.043,5.18 Z M3.108,3.437 L1.652,3.437 L2.38,1.351 L3.108,3.437 Z M6.86933333,5.229 C7.196,5.229 7.47483333,5.15083333 7.70583333,4.9945 C7.93683333,4.83816667 8.10366667,4.62933333 8.20633333,4.368 L8.20633333,4.368 L8.20633333,5.18 L9.18633333,5.18 L9.18633333,2.13162821e-14 L8.20633333,2.13162821e-14 L8.20633333,2.107 C8.10366667,1.84566667 7.93683333,1.638 7.70583333,1.484 C7.47483333,1.33 7.196,1.253 6.86933333,1.253 C6.54266667,1.253 6.24866667,1.33233333 5.98733333,1.491 C5.726,1.64966667 5.52183333,1.8795 5.37483333,2.1805 C5.22783333,2.4815 5.15433333,2.835 5.15433333,3.241 C5.15433333,3.647 5.22783333,4.0005 5.37483333,4.3015 C5.52183333,4.6025 5.726,4.83233333 5.98733333,4.991 C6.24866667,5.14966667 6.54266667,5.229 6.86933333,5.229 Z M7.17733333,4.361 C6.86933333,4.361 6.622,4.26183333 6.43533333,4.0635 C6.24866667,3.86516667 6.15533333,3.591 6.15533333,3.241 C6.15533333,2.891 6.24866667,2.61566667 6.43533333,2.415 C6.622,2.21433333 6.86933333,2.114 7.17733333,2.114 C7.476,2.114 7.72216667,2.2155 7.91583333,2.4185 C8.1095,2.6215 8.20633333,2.89566667 8.20633333,3.241 C8.20633333,3.58166667 8.1095,3.8535 7.91583333,4.0565 C7.72216667,4.2595 7.476,4.361 7.17733333,4.361 Z M11.9326667,5.229 C12.3106667,5.229 12.6501667,5.1485 12.9511667,4.9875 C13.2521667,4.8265 13.489,4.59666667 13.6616667,4.298 C13.8343333,3.99933333 13.9206667,3.647 13.9206667,3.241 C13.9206667,2.835 13.8343333,2.4815 13.6616667,2.1805 C13.489,1.8795 13.2521667,1.64966667 12.9511667,1.491 C12.6501667,1.33233333 12.3106667,1.253 11.9326667,1.253 C11.5546667,1.253 11.2151667,1.33233333 10.9141667,1.491 C10.6131667,1.64966667 10.3763333,1.8795 10.2036667,2.1805 C10.031,2.4815 9.94466667,2.835 9.94466667,3.241 C9.94466667,3.647 10.031,3.99933333 10.2036667,4.298 C10.3763333,4.59666667 10.6131667,4.8265 10.9141667,4.9875 C11.2151667,5.1485 11.5546667,5.229 11.9326667,5.229 Z M11.9326667,4.375 C11.6573333,4.375 11.424,4.27816667 11.2326667,4.0845 C11.0413333,3.89083333 10.9456667,3.60966667 10.9456667,3.241 C10.9456667,2.87233333 11.0413333,2.59116667 11.2326667,2.3975 C11.424,2.20383333 11.6573333,2.107 11.9326667,2.107 C12.208,2.107 12.4413333,2.20383333 12.6326667,2.3975 C12.824,2.59116667 12.9196667,2.87233333 12.9196667,3.241 C12.9196667,3.60966667 12.824,3.89083333 12.6326667,4.0845 C12.4413333,4.27816667 12.208,4.375 11.9326667,4.375 Z M16.996,5.229 C17.3226667,5.229 17.6166667,5.14966667 17.878,4.991 C18.1393333,4.83233333 18.3435,4.6025 18.4905,4.3015 C18.6375,4.0005 18.711,3.647 18.711,3.241 C18.711,2.835 18.6375,2.4815 18.4905,2.1805 C18.3435,1.8795 18.1393333,1.64966667 17.878,1.491 C17.6166667,1.33233333 17.3226667,1.253 16.996,1.253 C16.6693333,1.253 16.3905,1.33 16.1595,1.484 C15.9285,1.638 15.764,1.84566667 15.666,2.107 L15.666,2.107 L15.666,2.13162821e-14 L14.679,2.13162821e-14 L14.679,5.18 L15.666,5.18 L15.666,4.368 C15.764,4.62933333 15.9285,4.83816667 16.1595,4.9945 C16.3905,5.15083333 16.6693333,5.229 16.996,5.229 Z M16.688,4.361 C16.3893333,4.361 16.1431667,4.2595 15.9495,4.0565 C15.7558333,3.8535 15.659,3.58166667 15.659,3.241 C15.659,2.89566667 15.7558333,2.6215 15.9495,2.4185 C16.1431667,2.2155 16.3893333,2.114 16.688,2.114 C16.996,2.114 17.2433333,2.21433333 17.43,2.415 C17.6166667,2.61566667 17.71,2.891 17.71,3.241 C17.71,3.591 17.6166667,3.86516667 17.43,4.0635 C17.2433333,4.26183333 16.996,4.361 16.688,4.361 Z M21.2123333,5.229 C21.5343333,5.229 21.8271667,5.16833333 22.0908333,5.047 C22.3545,4.92566667 22.5703333,4.75766667 22.7383333,4.543 C22.9063333,4.32833333 23.016,4.08566667 23.0673333,3.815 L23.0673333,3.815 L22.0243333,3.815 C21.9823333,4.00633333 21.8855,4.158 21.7338333,4.27 C21.5821667,4.382 21.392,4.438 21.1633333,4.438 C20.9066667,4.438 20.692,4.35633333 20.5193333,4.193 C20.3466667,4.02966667 20.2533333,3.77533333 20.2393333,3.43 L20.2393333,3.43 L23.0813333,3.43 C23.1046667,3.304 23.1163333,3.192 23.1163333,3.094 C23.1163333,2.73933333 23.0381667,2.42316667 22.8818333,2.1455 C22.7255,1.86783333 22.5038333,1.64966667 22.2168333,1.491 C21.9298333,1.33233333 21.595,1.253 21.2123333,1.253 C20.8343333,1.253 20.4983333,1.33233333 20.2043333,1.491 C19.9103333,1.64966667 19.6816667,1.8795 19.5183333,2.1805 C19.355,2.4815 19.2733333,2.835 19.2733333,3.241 C19.2733333,3.647 19.355,3.99933333 19.5183333,4.298 C19.6816667,4.59666667 19.9103333,4.8265 20.2043333,4.9875 C20.4983333,5.1485 20.8343333,5.229 21.2123333,5.229 Z M22.1223333,2.996 L20.2393333,2.996 C20.258,2.67866667 20.3583333,2.43833333 20.5403333,2.275 C20.7223333,2.11166667 20.9463333,2.03 21.2123333,2.03 C21.4736667,2.03 21.6941667,2.11166667 21.8738333,2.275 C22.0535,2.43833333 22.1363333,2.67866667 22.1223333,2.996 L22.1223333,2.996 Z M26.264,5.18 L27.251,3.493 L28.364,5.18 L29.533,5.18 L27.909,2.723 L29.456,0.238 L28.329,0.238 L27.356,1.89 L26.264,0.238 L25.095,0.238 L26.691,2.653 L25.137,5.18 L26.264,5.18 Z M31.8803333,5.18 C32.417,5.18 32.8801667,5.07616667 33.2698333,4.8685 C33.6595,4.66083333 33.957,4.37033333 34.1623333,3.997 C34.3676667,3.62366667 34.4703333,3.192 34.4703333,2.702 C34.4703333,2.20733333 34.3676667,1.7745 34.1623333,1.4035 C33.957,1.0325 33.6595,0.7455 33.2698333,0.5425 C32.8801667,0.3395 32.417,0.238 31.8803333,0.238 L31.8803333,0.238 L30.1233333,0.238 L30.1233333,5.18 L31.8803333,5.18 Z M31.7963333,4.298 L31.1103333,4.298 L31.1103333,1.099 L31.7963333,1.099 C32.3283333,1.099 32.7401667,1.239 33.0318333,1.519 C33.3235,1.799 33.4693333,2.19333333 33.4693333,2.702 C33.4693333,3.206 33.3235,3.598 33.0318333,3.878 C32.7401667,4.158 32.3283333,4.298 31.7963333,4.298 L31.7963333,4.298 Z" id="AdobeXD" fill="#626A6F" fill-rule="nonzero"></path>
            <g id="Group-4" transform="translate(-0.000000, 9.000000)">
                <polygon id="Fill-3" fill="#F8AB16" points="4.184 4.991 2.581 4.119 0.955 4.945 1.288 3.152 -7.2475359e-13 1.861 1.809 1.624 2.639 -7.10542736e-15 3.423 1.646 5.225 1.934 3.901 3.189"></polygon>
                <polygon id="Fill-4" fill="#F8AB16" points="11.409 4.991 9.806 4.119 8.18 4.945 8.513 3.152 7.225 1.861 9.034 1.624 9.864 -7.10542736e-15 10.648 1.646 12.449 1.934 11.126 3.189"></polygon>
                <polygon id="Fill-5" fill="#F8AB16" points="18.633 4.991 17.03 4.119 15.404 4.945 15.737 3.152 14.449 1.861 16.258 1.624 17.088 -7.10542736e-15 17.872 1.646 19.673 1.934 18.35 3.189"></polygon>
                <polygon id="Fill-6" fill="#F8AB16" points="25.856 4.991 24.254 4.119 22.627 4.945 22.961 3.152 21.673 1.861 23.482 1.624 24.312 -7.10542736e-15 25.096 1.646 26.897 1.934 25.573 3.189"></polygon>
                <polygon id="Fill-7" fill="#58585B" points="30.704 1.624 28.897 1.861 30.185 3.152 29.851 4.945 31.477 4.119 33.079 4.991 32.797 3.189 34.12 1.935 32.319 1.647 31.535 -7.10542736e-15"></polygon>
            </g>
        </g>
    </g>
</svg>