<?xml version="1.0" encoding="UTF-8"?>
<svg width="80px" height="32px" viewBox="0 0 80 32" version="1.1" xmlns="http://www.w3.org/2000/svg" xmlns:xlink="http://www.w3.org/1999/xlink">
    <title>Zeplin</title>
    <g id="Zeplin" stroke="none" stroke-width="1" fill="none" fill-rule="evenodd">
        <g id="Group" transform="translate(2.000000, 2.000000)" fill-rule="nonzero">
            <rect id="Rectangle" stroke="#626A6F" x="0.5" y="0.5" width="27" height="27" rx="4"></rect>
            <polygon id="Z" fill="#626A6F" points="18.291 19 18.291 17.46 12.341 17.46 18.109 10.418 18.109 9.2 10.031 9.2 10.031 10.74 15.701 10.74 9.933 17.782 9.933 19"></polygon>
        </g>
        <g id="Group-2" transform="translate(34.000000, 4.000000)">
            <path d="M0.21,22.2 L0.762,20.79 L2.748,20.79 L3.306,22.2 L3.516,22.2 L1.848,18 L1.638,18 L1.27897692e-13,22.2 L0.21,22.2 Z M2.67,20.598 L0.834,20.598 L1.74,18.282 L1.752,18.282 L2.67,20.598 Z M5.598,22.2 L6.84,19.05 L6.618,19.05 L5.472,21.954 L5.448,21.954 L4.308,19.05 L4.086,19.05 L5.322,22.2 L5.598,22.2 Z M8.922,22.23 C9.266,22.23 9.546,22.139 9.762,21.957 C9.978,21.775 10.13,21.548 10.218,21.276 L10.218,21.276 L10.008,21.276 C9.916,21.508 9.777,21.691 9.591,21.825 C9.405,21.959 9.182,22.026 8.922,22.026 C8.682,22.026 8.47,21.964 8.286,21.84 C8.102,21.716 7.959,21.552 7.857,21.348 C7.755,21.144 7.704,20.928 7.704,20.7 L7.704,20.7 L7.704,20.658 L10.272,20.658 L10.272,20.598 C10.272,20.066 10.149,19.658 9.903,19.374 C9.657,19.09 9.33,18.948 8.922,18.948 C8.61,18.948 8.346,19.026 8.13,19.182 C7.914,19.338 7.752,19.541 7.644,19.791 C7.536,20.041 7.482,20.306 7.482,20.586 C7.482,20.862 7.535,21.126 7.641,21.378 C7.747,21.63 7.909,21.835 8.127,21.993 C8.345,22.151 8.61,22.23 8.922,22.23 Z M10.05,20.466 L7.71,20.466 C7.73,20.082 7.847,19.768 8.061,19.524 C8.275,19.28 8.562,19.158 8.922,19.158 C9.246,19.158 9.509,19.259 9.711,19.461 C9.913,19.663 10.026,19.998 10.05,20.466 L10.05,20.466 Z M11.334,22.2 L11.334,20.214 C11.334,19.882 11.408,19.645 11.556,19.503 C11.704,19.361 11.886,19.29 12.102,19.29 C12.174,19.29 12.233,19.294 12.279,19.302 C12.325,19.31 12.386,19.324 12.462,19.344 L12.462,19.344 L12.462,19.11 C12.398,19.086 12.344,19.07 12.3,19.062 C12.256,19.054 12.192,19.05 12.108,19.05 C11.924,19.05 11.769,19.099 11.643,19.197 C11.517,19.295 11.424,19.414 11.364,19.554 L11.364,19.554 L11.334,19.554 L11.334,19.05 L11.136,19.05 L11.136,22.2 L11.334,22.2 Z M14.298,22.23 C14.586,22.23 14.829,22.158 15.027,22.014 C15.225,21.87 15.382,21.682 15.498,21.45 L15.498,21.45 L15.54,21.45 L15.54,22.2 L15.744,22.2 L15.744,19.05 L15.54,19.05 L15.54,19.722 L15.498,19.722 C15.242,19.206 14.85,18.948 14.322,18.948 C14.026,18.948 13.77,19.022 13.554,19.17 C13.338,19.318 13.175,19.517 13.065,19.767 C12.955,20.017 12.9,20.292 12.9,20.592 C12.9,20.892 12.955,21.166 13.065,21.414 C13.175,21.662 13.335,21.86 13.545,22.008 C13.755,22.156 14.006,22.23 14.298,22.23 Z M14.316,22.014 C13.928,22.014 13.631,21.88 13.425,21.612 C13.219,21.344 13.116,21.002 13.116,20.586 C13.116,20.174 13.219,19.834 13.425,19.566 C13.631,19.298 13.928,19.164 14.316,19.164 C14.696,19.164 14.991,19.298 15.201,19.566 C15.411,19.834 15.516,20.176 15.516,20.592 C15.516,20.86 15.47,21.102 15.378,21.318 C15.286,21.534 15.15,21.704 14.97,21.828 C14.79,21.952 14.572,22.014 14.316,22.014 Z M18.174,23.394 C18.45,23.394 18.688,23.337 18.888,23.223 C19.088,23.109 19.241,22.952 19.347,22.752 C19.453,22.552 19.506,22.328 19.506,22.08 L19.506,22.08 L19.506,19.056 L19.302,19.056 L19.302,19.746 L19.26,19.746 C19.164,19.506 19.011,19.311 18.801,19.161 C18.591,19.011 18.342,18.936 18.054,18.936 C17.782,18.936 17.54,19.005 17.328,19.143 C17.116,19.281 16.952,19.471 16.836,19.713 C16.72,19.955 16.662,20.226 16.662,20.526 C16.662,20.83 16.722,21.103 16.842,21.345 C16.962,21.587 17.128,21.776 17.34,21.912 C17.552,22.048 17.792,22.116 18.06,22.116 C18.328,22.116 18.567,22.048 18.777,21.912 C18.987,21.776 19.146,21.592 19.254,21.36 L19.254,21.36 L19.302,21.36 L19.302,22.08 C19.302,22.432 19.202,22.704 19.002,22.896 C18.802,23.088 18.526,23.184 18.174,23.184 C18.01,23.184 17.85,23.162 17.694,23.118 L17.694,23.118 L17.694,23.322 C17.83,23.37 17.99,23.394 18.174,23.394 Z M18.09,21.9 C17.838,21.9 17.622,21.838 17.442,21.714 C17.262,21.59 17.126,21.422 17.034,21.21 C16.942,20.998 16.896,20.766 16.896,20.514 C16.896,20.266 16.942,20.039 17.034,19.833 C17.126,19.627 17.261,19.462 17.439,19.338 C17.617,19.214 17.834,19.152 18.09,19.152 C18.342,19.152 18.558,19.214 18.738,19.338 C18.918,19.462 19.053,19.627 19.143,19.833 C19.233,20.039 19.278,20.266 19.278,20.514 C19.278,20.766 19.232,20.998 19.14,21.21 C19.048,21.422 18.913,21.59 18.735,21.714 C18.557,21.838 18.342,21.9 18.09,21.9 Z M21.87,22.23 C22.214,22.23 22.494,22.139 22.71,21.957 C22.926,21.775 23.078,21.548 23.166,21.276 L23.166,21.276 L22.956,21.276 C22.864,21.508 22.725,21.691 22.539,21.825 C22.353,21.959 22.13,22.026 21.87,22.026 C21.63,22.026 21.418,21.964 21.234,21.84 C21.05,21.716 20.907,21.552 20.805,21.348 C20.703,21.144 20.652,20.928 20.652,20.7 L20.652,20.7 L20.652,20.658 L23.22,20.658 L23.22,20.598 C23.22,20.066 23.097,19.658 22.851,19.374 C22.605,19.09 22.278,18.948 21.87,18.948 C21.558,18.948 21.294,19.026 21.078,19.182 C20.862,19.338 20.7,19.541 20.592,19.791 C20.484,20.041 20.43,20.306 20.43,20.586 C20.43,20.862 20.483,21.126 20.589,21.378 C20.695,21.63 20.857,21.835 21.075,21.993 C21.293,22.151 21.558,22.23 21.87,22.23 Z M22.998,20.466 L20.658,20.466 C20.678,20.082 20.795,19.768 21.009,19.524 C21.223,19.28 21.51,19.158 21.87,19.158 C22.194,19.158 22.457,19.259 22.659,19.461 C22.861,19.663 22.974,19.998 22.998,20.466 L22.998,20.466 Z" id="Average" fill="#231F20" fill-rule="nonzero"></path>
            <path d="M3.661,5.411 L3.661,4.529 L1.141,4.529 L1.141,4.515 L3.661,1.386 L3.661,0.511 L-4.79616347e-14,0.511 L-4.79616347e-14,1.386 L2.506,1.386 L2.506,1.4 L-4.79616347e-14,4.529 L-4.79616347e-14,5.411 L3.661,5.411 Z M6.104,5.467 C6.54733333,5.467 6.91133333,5.3515 7.196,5.1205 C7.48066667,4.8895 7.672,4.592 7.77,4.228 L7.77,4.228 L6.818,4.228 C6.762,4.37266667 6.671,4.487 6.545,4.571 C6.419,4.655 6.265,4.697 6.083,4.697 C5.84966667,4.697 5.656,4.6165 5.502,4.4555 C5.348,4.2945 5.271,4.102 5.271,3.878 L5.271,3.878 L5.271,3.822 L7.805,3.822 L7.805,3.556 C7.805,2.93066667 7.65216667,2.45233333 7.3465,2.121 C7.04083333,1.78966667 6.629,1.624 6.111,1.624 C5.719,1.624 5.39,1.715 5.124,1.897 C4.858,2.079 4.66083333,2.31583333 4.5325,2.6075 C4.40416667,2.89916667 4.34,3.213 4.34,3.549 C4.34,3.885 4.40416667,4.19883333 4.5325,4.4905 C4.66083333,4.78216667 4.858,5.01783333 5.124,5.1975 C5.39,5.37716667 5.71666667,5.467 6.104,5.467 Z M6.874,3.192 L5.299,3.192 C5.30833333,2.926 5.383,2.716 5.523,2.562 C5.663,2.408 5.85433333,2.331 6.097,2.331 C6.32566667,2.331 6.51,2.401 6.65,2.541 C6.79,2.681 6.86466667,2.898 6.874,3.192 L6.874,3.192 Z M9.457,6.867 L9.457,4.774 L9.513,4.774 C9.597,4.94666667 9.72766667,5.10533333 9.905,5.25 C10.0823333,5.39466667 10.3273333,5.467 10.64,5.467 C11.1066667,5.467 11.4671667,5.292 11.7215,4.942 C11.9758333,4.592 12.103,4.13 12.103,3.556 C12.103,2.968 11.9758333,2.499 11.7215,2.149 C11.4671667,1.799 11.1043333,1.624 10.633,1.624 C10.3156667,1.624 10.0683333,1.69516667 9.891,1.8375 C9.71366667,1.97983333 9.58766667,2.13033333 9.513,2.289 L9.513,2.289 L9.457,2.289 L9.457,1.715 L8.484,1.715 L8.484,6.867 L9.457,6.867 Z M10.29,4.697 C10.0146667,4.697 9.807,4.585 9.667,4.361 C9.527,4.137 9.457,3.86866667 9.457,3.556 C9.457,3.248 9.527,2.982 9.667,2.758 C9.807,2.534 10.0146667,2.422 10.29,2.422 C10.57,2.422 10.7788333,2.53283333 10.9165,2.7545 C11.0541667,2.97616667 11.123,3.241 11.123,3.549 C11.123,3.86633333 11.0541667,4.137 10.9165,4.361 C10.7788333,4.585 10.57,4.697 10.29,4.697 Z M14.007,5.439 C14.1423333,5.439 14.329,5.425 14.567,5.397 L14.567,5.397 L14.567,4.725 C14.4923333,4.73433333 14.427,4.739 14.371,4.739 C14.203,4.739 14.0805,4.7145 14.0035,4.6655 C13.9265,4.6165 13.8798333,4.55116667 13.8635,4.4695 C13.8471667,4.38783333 13.839,4.263 13.839,4.095 L13.839,4.095 L13.839,0.161 L12.873,0.161 L12.873,4.291 C12.873,4.53366667 12.8928333,4.73316667 12.9325,4.8895 C12.9721667,5.04583333 13.0748333,5.1765 13.2405,5.2815 C13.4061667,5.3865 13.6616667,5.439 14.007,5.439 Z M15.799,1.078 C15.953,1.078 16.0813333,1.0255 16.184,0.9205 C16.2866667,0.8155 16.338,0.688333333 16.338,0.539 C16.338,0.389666667 16.2866667,0.2625 16.184,0.1575 C16.0813333,0.0525 15.953,-1.9095836e-14 15.799,-1.9095836e-14 C15.645,-1.9095836e-14 15.5166667,0.0513333333 15.414,0.154 C15.3113333,0.256666667 15.26,0.385 15.26,0.539 C15.26,0.688333333 15.3113333,0.8155 15.414,0.9205 C15.5166667,1.0255 15.645,1.078 15.799,1.078 Z M16.289,5.411 L16.289,1.715 L15.323,1.715 L15.323,5.411 L16.289,5.411 Z M18.179,5.411 L18.179,3.297 C18.179,3.04033333 18.242,2.8315 18.368,2.6705 C18.494,2.5095 18.6806667,2.429 18.928,2.429 C19.1613333,2.429 19.3421667,2.506 19.4705,2.66 C19.5988333,2.814 19.663,3.02633333 19.663,3.297 L19.663,3.297 L19.663,5.411 L20.629,5.411 L20.629,3.136 C20.629,2.744 20.5298333,2.394 20.3315,2.086 C20.1331667,1.778 19.7936667,1.624 19.313,1.624 C19.047,1.624 18.8206667,1.68816667 18.634,1.8165 C18.4473333,1.94483333 18.312,2.1 18.228,2.282 L18.228,2.282 L18.179,2.282 L18.179,1.715 L17.199,1.715 L17.199,5.411 L18.179,5.411 Z" id="Zeplin" fill="#626A6F" fill-rule="nonzero"></path>
            <g id="Group-4" transform="translate(-0.000000, 9.000000)">
                <polygon id="Fill-3" fill="#F8AB16" points="4.184 4.991 2.581 4.119 0.955 4.945 1.288 3.152 -7.2475359e-13 1.861 1.809 1.624 2.639 -7.10542736e-15 3.423 1.646 5.225 1.934 3.901 3.189"></polygon>
                <polygon id="Fill-4" fill="#F8AB16" points="11.409 4.991 9.806 4.119 8.18 4.945 8.513 3.152 7.225 1.861 9.034 1.624 9.864 -7.10542736e-15 10.648 1.646 12.449 1.934 11.126 3.189"></polygon>
                <polygon id="Fill-5" fill="#F8AB16" points="18.633 4.991 17.03 4.119 15.404 4.945 15.737 3.152 14.449 1.861 16.258 1.624 17.088 -7.10542736e-15 17.872 1.646 19.673 1.934 18.35 3.189"></polygon>
                <polygon id="Fill-7" fill="#58585B" points="23.48 1.624 21.673 1.861 22.961 3.152 22.627 4.945 24.253 4.119 25.855 4.991 25.573 3.189 26.896 1.935 25.095 1.647 24.311 -7.10542736e-15"></polygon>
                <polygon id="Fill-7" fill="#58585B" points="30.703 1.624 28.896 1.861 30.184 3.152 29.85 4.945 31.476 4.119 33.078 4.991 32.796 3.189 34.119 1.935 32.318 1.647 31.534 -7.10542736e-15"></polygon>
            </g>
        </g>
    </g>
</svg>